<svg xmlns="http://www.w3.org/2000/svg" xmlns:xlink="http://www.w3.org/1999/xlink" width="1000" zoomAndPan="magnify" viewBox="0 0 750 374.999991" height="500" preserveAspectRatio="xMidYMid meet" version="1.0"><defs><g/><clipPath id="a054b7f536"><path d="M 71.277344 198 L 383 198 L 383 337.5 L 71.277344 337.5 Z M 71.277344 198 " clip-rule="nonzero"/></clipPath><clipPath id="84c409b040"><path d="M 93 37.5 L 226 37.5 L 226 106 L 93 106 Z M 93 37.5 " clip-rule="nonzero"/></clipPath></defs><rect x="-75" width="900" fill="#ffffff" y="-37.499999" height="449.999989" fill-opacity="1"/><rect x="-75" width="900" fill="#ffffff" y="-37.499999" height="449.999989" fill-opacity="1"/><path fill="#737373" d="M 312.949219 288.128906 L 257.238281 288.128906 C 255.558594 288.128906 254.199219 286.769531 254.199219 285.089844 C 254.199219 283.425781 255.558594 282.0625 257.238281 282.0625 L 311.113281 282.0625 L 356.714844 195.253906 C 357.917969 192.96875 357.832031 190.296875 356.507812 188.09375 C 355.167969 185.882812 352.835938 184.570312 350.257812 184.570312 L 252.230469 184.570312 C 249.652344 184.570312 247.234375 185.957031 245.933594 188.191406 L 188.640625 286.625 C 188.09375 287.558594 187.09375 288.128906 186.015625 288.128906 L 99.921875 288.128906 C 98.257812 288.128906 96.894531 286.769531 96.894531 285.089844 C 96.894531 283.425781 98.257812 282.0625 99.921875 282.0625 L 184.273438 282.0625 L 240.691406 185.140625 C 243.074219 181.046875 247.5 178.503906 252.230469 178.503906 L 350.257812 178.503906 C 354.976562 178.503906 359.253906 180.921875 361.6875 184.960938 C 364.128906 188.996094 364.273438 193.894531 362.085938 198.074219 L 315.625 286.5 C 315.101562 287.5 314.070312 288.128906 312.949219 288.128906 " fill-opacity="1" fill-rule="nonzero"/><path fill="#737373" d="M 110.59375 182.089844 C 109.027344 182.089844 107.445312 181.957031 105.878906 181.6875 C 88.105469 178.648438 79.792969 164.707031 79.449219 164.125 C 78.929688 163.234375 78.890625 162.152344 79.355469 161.242188 C 79.804688 160.332031 80.691406 159.710938 81.699219 159.589844 C 89.613281 158.628906 95.386719 154.542969 99.351562 147.09375 C 103.921875 138.472656 104.929688 129.246094 105.988281 119.484375 C 106.144531 118.097656 106.292969 116.703125 106.460938 115.292969 C 107.410156 107.171875 108.773438 98.550781 112.382812 90.492188 C 120.015625 73.425781 139.636719 61.511719 160.109375 61.511719 C 180.566406 61.511719 200.1875 73.425781 207.824219 90.492188 C 211.433594 98.550781 212.804688 107.171875 213.742188 115.292969 C 213.914062 116.6875 214.058594 118.085938 214.214844 119.484375 C 215.273438 129.246094 216.28125 138.472656 220.855469 147.09375 C 224.816406 154.542969 230.589844 158.628906 238.503906 159.589844 C 239.515625 159.710938 240.402344 160.332031 240.863281 161.242188 C 241.3125 162.152344 241.277344 163.234375 240.765625 164.125 C 240.414062 164.707031 232.097656 178.648438 214.324219 181.6875 C 204.625 183.355469 194.546875 179.757812 188.019531 172.328125 L 187.847656 172.132812 C 186.753906 170.871094 186.890625 168.949219 188.164062 167.855469 C 189.429688 166.761719 191.339844 166.894531 192.433594 168.160156 L 192.578125 168.316406 C 197.71875 174.1875 205.660156 177.019531 213.304688 175.71875 C 223.078125 174.042969 229.519531 168.390625 232.839844 164.609375 C 225.363281 162.457031 219.542969 157.535156 215.503906 149.925781 C 210.386719 140.285156 209.316406 130.5 208.1875 120.140625 C 208.042969 118.769531 207.882812 117.382812 207.726562 115.996094 C 206.835938 108.351562 205.5625 100.277344 202.292969 92.972656 C 195.59375 78.019531 178.246094 67.566406 160.109375 67.566406 C 141.960938 67.566406 124.613281 78.019531 117.914062 92.972656 C 114.644531 100.277344 113.367188 108.351562 112.480469 115.996094 C 112.320312 117.382812 112.175781 118.769531 112.019531 120.140625 C 110.886719 130.5 109.828125 140.285156 104.699219 149.925781 C 100.664062 157.535156 94.851562 162.457031 87.390625 164.609375 C 90.730469 168.390625 97.1875 174.054688 106.898438 175.71875 C 114.546875 177.019531 122.484375 174.1875 127.625 168.328125 L 127.773438 168.160156 C 128.867188 166.894531 130.789062 166.761719 132.050781 167.855469 C 133.316406 168.949219 133.449219 170.871094 132.355469 172.132812 L 132.183594 172.328125 C 126.714844 178.566406 118.753906 182.089844 110.59375 182.089844 " fill-opacity="1" fill-rule="nonzero"/><path fill="#737373" d="M 160.109375 192.691406 C 146.796875 192.691406 134.554688 184.777344 127.347656 171.515625 C 123.285156 164.050781 121.148438 155.394531 121.148438 146.472656 C 121.148438 144.792969 122.507812 143.433594 124.175781 143.433594 C 125.851562 143.433594 127.214844 144.792969 127.214844 146.472656 C 127.214844 154.386719 129.097656 162.042969 132.671875 168.609375 C 138.796875 179.890625 149.058594 186.625 160.109375 186.625 C 171.121094 186.625 181.359375 179.925781 187.484375 168.695312 C 191.09375 162.105469 193.003906 154.421875 193.003906 146.472656 C 193.003906 144.792969 194.351562 143.433594 196.03125 143.433594 C 197.707031 143.433594 199.058594 144.792969 199.058594 146.472656 C 199.058594 155.429688 196.90625 164.125 192.808594 171.613281 C 185.601562 184.8125 173.371094 192.691406 160.109375 192.691406 " fill-opacity="1" fill-rule="nonzero"/><g clip-path="url(#a054b7f536)"><path fill="#737373" d="M 379.945312 337.4375 L 90.125 337.4375 C 79.996094 337.4375 71.769531 329.195312 71.769531 319.082031 L 71.769531 284.617188 C 71.769531 264.558594 76.082031 244.804688 84.265625 227.507812 C 88.59375 218.328125 93.101562 211.605469 97.671875 207.496094 C 111.910156 194.695312 122.191406 198.464844 134.105469 202.828125 C 141.277344 205.453125 149.398438 208.433594 160.109375 208.433594 C 170.816406 208.433594 178.925781 205.453125 186.097656 202.828125 C 198.011719 198.464844 208.308594 194.695312 222.53125 207.496094 C 224.257812 209.042969 225.984375 210.972656 227.648438 213.222656 C 228.660156 214.570312 228.378906 216.46875 227.03125 217.464844 C 225.691406 218.460938 223.785156 218.183594 222.785156 216.84375 C 221.351562 214.914062 219.90625 213.285156 218.484375 212.007812 C 206.960938 201.636719 199.496094 204.386719 188.175781 208.53125 C 180.542969 211.328125 171.886719 214.5 160.109375 214.5 C 148.316406 214.5 139.660156 211.328125 132.027344 208.53125 C 120.722656 204.386719 113.246094 201.648438 101.722656 212.007812 C 97.757812 215.570312 93.734375 221.660156 89.746094 230.097656 C 81.957031 246.59375 77.835938 265.445312 77.835938 284.617188 L 77.835938 319.082031 C 77.835938 325.851562 83.339844 331.371094 90.125 331.371094 L 375.640625 331.371094 L 351.851562 264.570312 L 325.3125 264.570312 C 323.648438 264.570312 322.285156 263.222656 322.285156 261.542969 C 322.285156 259.867188 323.648438 258.503906 325.3125 258.503906 L 353.992188 258.503906 C 355.265625 258.503906 356.410156 259.320312 356.847656 260.523438 L 382.800781 333.390625 C 383.128906 334.3125 382.984375 335.347656 382.414062 336.148438 C 381.851562 336.949219 380.929688 337.4375 379.945312 337.4375 " fill-opacity="1" fill-rule="nonzero"/></g><path fill="#737373" d="M 222.324219 138.632812 L 213.523438 138.632812 C 211.859375 138.632812 210.496094 137.269531 210.496094 135.59375 C 210.496094 133.925781 211.859375 132.566406 213.523438 132.566406 L 222.324219 132.566406 C 224.9375 132.566406 227.054688 130.449219 227.054688 127.835938 L 227.054688 110.28125 C 227.054688 107.679688 224.9375 105.554688 222.324219 105.554688 L 216.015625 105.554688 C 214.339844 105.554688 212.988281 104.203125 212.988281 102.527344 C 212.988281 100.847656 214.339844 99.5 216.015625 99.5 L 222.324219 99.5 C 228.269531 99.5 233.121094 104.339844 233.121094 110.28125 L 233.121094 127.835938 C 233.121094 133.792969 228.269531 138.632812 222.324219 138.632812 " fill-opacity="1" fill-rule="nonzero"/><path fill="#737373" d="M 106.679688 138.632812 L 96.105469 138.632812 C 90.148438 138.632812 85.308594 133.792969 85.308594 127.835938 L 85.308594 110.28125 C 85.308594 104.339844 90.148438 99.5 96.105469 99.5 L 102.902344 99.5 C 104.578125 99.5 105.925781 100.847656 105.925781 102.527344 C 105.925781 104.203125 104.578125 105.554688 102.902344 105.554688 L 96.105469 105.554688 C 93.492188 105.554688 91.375 107.679688 91.375 110.28125 L 91.375 127.835938 C 91.375 130.449219 93.492188 132.566406 96.105469 132.566406 L 106.679688 132.566406 C 108.347656 132.566406 109.707031 133.925781 109.707031 135.59375 C 109.707031 137.269531 108.347656 138.632812 106.679688 138.632812 " fill-opacity="1" fill-rule="nonzero"/><g clip-path="url(#84c409b040)"><path fill="#737373" d="M 222.324219 105.554688 C 220.660156 105.554688 219.296875 104.203125 219.296875 102.527344 C 219.296875 70.058594 192.871094 43.628906 160.398438 43.628906 L 158.03125 43.628906 C 125.558594 43.628906 99.132812 70.058594 99.132812 102.527344 C 99.132812 104.203125 97.769531 105.554688 96.105469 105.554688 C 94.425781 105.554688 93.066406 104.203125 93.066406 102.527344 C 93.066406 66.703125 122.21875 37.5625 158.03125 37.5625 L 160.398438 37.5625 C 196.214844 37.5625 225.363281 66.703125 225.363281 102.527344 C 225.363281 104.203125 224.003906 105.554688 222.324219 105.554688 " fill-opacity="1" fill-rule="nonzero"/></g><g fill="#737373" fill-opacity="1"><g transform="translate(383.802698, 202.124987)"><g><path d="M 33.109375 -24.183594 L 33.109375 -24.726562 C 37.332031 -25.207031 40.261719 -29.496094 40.261719 -35.558594 C 40.261719 -42.578125 34.332031 -48.09375 25.546875 -48.09375 L 4.769531 -48.09375 L 4.769531 0 L 25.683594 0 C 34.8125 0 40.875 -5.519531 40.875 -13.691406 C 40.875 -19.621094 37.671875 -23.84375 33.109375 -24.183594 Z M 28.679688 -33.71875 C 28.679688 -30.449219 26.296875 -28.269531 22.683594 -28.269531 L 16.621094 -28.269531 L 16.621094 -39.308594 L 22.957031 -39.308594 C 26.363281 -39.238281 28.679688 -37.738281 28.679688 -33.71875 Z M 29.089844 -14.644531 C 29.089844 -11.105469 26.703125 -8.71875 23.230469 -8.71875 L 16.621094 -8.71875 L 16.621094 -20.300781 L 23.027344 -20.300781 C 26.5 -20.300781 28.953125 -18.050781 29.089844 -14.644531 Z M 29.089844 -14.644531 "/></g></g></g><g fill="#737373" fill-opacity="1"><g transform="translate(427.468348, 202.124987)"><g><path d="M 22.546875 -48.09375 L 4.769531 -48.09375 L 4.769531 0 L 16.621094 0 L 16.621094 -15.667969 L 22.546875 -15.667969 C 33.515625 -15.667969 40.804688 -22.277344 40.804688 -32.289062 C 40.804688 -41.757812 33.515625 -48.09375 22.546875 -48.09375 Z M 29.019531 -32.359375 C 29.019531 -27.589844 26.5 -24.386719 22.683594 -24.386719 L 16.621094 -24.386719 L 16.621094 -39.101562 L 22.546875 -39.101562 C 26.429688 -39.101562 29.019531 -36.378906 29.019531 -32.359375 Z M 29.019531 -32.359375 "/></g></g></g><g fill="#737373" fill-opacity="1"><g transform="translate(470.452778, 202.124987)"><g><path d="M 22.617188 0.613281 C 34.199219 0.613281 42.03125 -9.058594 42.03125 -23.570312 C 42.03125 -38.964844 34.402344 -49.320312 22.617188 -49.320312 C 11.171875 -49.320312 3.472656 -38.964844 3.472656 -23.570312 C 3.472656 -9.058594 11.035156 0.613281 22.617188 0.613281 Z M 22.753906 -8.378906 C 17.710938 -8.378906 15.328125 -14.441406 15.328125 -23.503906 C 15.328125 -33.515625 17.507812 -40.191406 22.753906 -40.191406 C 27.929688 -40.191406 30.109375 -33.789062 30.109375 -23.503906 C 30.109375 -14.441406 28 -8.378906 22.753906 -8.378906 Z M 22.753906 -8.378906 "/></g></g></g><g fill="#737373" fill-opacity="1"><g transform="translate(515.821446, 202.124987)"><g><path d="M 0.75 7.96875 L 9.808594 7.96875 L 34.8125 -54.15625 L 25.820312 -54.15625 Z M 0.75 7.96875 "/></g></g></g><g fill="#737373" fill-opacity="1"><g transform="translate(551.312559, 202.124987)"><g><path d="M 4.769531 0 L 16.621094 0 L 16.621094 -47.6875 L 4.769531 -47.6875 Z M 4.769531 0 "/></g></g></g><g fill="#737373" fill-opacity="1"><g transform="translate(572.634468, 202.124987)"><g><path d="M 37.875 -48.09375 L 0.953125 -48.09375 L 0.953125 -39.101562 L 13.488281 -39.101562 L 13.488281 0 L 25.339844 0 L 25.339844 -39.101562 L 37.875 -39.101562 Z M 37.875 -48.09375 "/></g></g></g><g fill="#737373" fill-opacity="1"><g transform="translate(611.531641, 202.124987)"><g><path d="M 16.621094 -38.695312 L 34.539062 -38.695312 L 34.539062 -47.6875 L 4.769531 -47.6875 L 4.769531 0 L 34.539062 0 L 34.539062 -8.992188 L 16.621094 -8.992188 L 16.621094 -20.097656 L 33.175781 -20.097656 L 33.175781 -28.816406 L 16.621094 -28.816406 Z M 16.621094 -38.695312 "/></g></g></g><g fill="#737373" fill-opacity="1"><g transform="translate(648.930152, 202.124987)"><g><path d="M 25.75 -26.636719 C 19.484375 -28.40625 14.511719 -30.042969 14.511719 -32.835938 C 14.511719 -36.445312 17.847656 -38.214844 22.480469 -38.285156 C 27.113281 -38.285156 32.496094 -35.765625 35.695312 -33.515625 L 38.351562 -42.644531 C 34.605469 -46.117188 27.316406 -49.253906 21.253906 -49.320312 C 11.238281 -49.320312 3.679688 -44.347656 2.929688 -36.71875 C 2.042969 -28.882812 7.699219 -22.617188 16.894531 -20.503906 C 23.570312 -18.9375 27.726562 -18.121094 27.726562 -15.464844 C 27.726562 -12.195312 24.046875 -10.898438 19.210938 -11.375 C 14.988281 -11.71875 9.46875 -13.898438 5.109375 -15.054688 L 3.542969 -3.203125 C 7.628906 -2.042969 13.691406 -0.203125 19.007812 0.273438 C 30.382812 1.429688 40.191406 -4.019531 40.191406 -14.851562 C 40.191406 -21.457031 33.039062 -24.726562 25.75 -26.636719 Z M 25.75 -26.636719 "/></g></g></g></svg>