<svg xmlns="http://www.w3.org/2000/svg" xmlns:xlink="http://www.w3.org/1999/xlink" width="1000" zoomAndPan="magnify" viewBox="0 0 750 374.999991" height="500" preserveAspectRatio="xMidYMid meet" version="1.0"><defs><g/></defs><rect x="-75" width="900" fill="#ffffff" y="-37.499999" height="449.999989" fill-opacity="1"/><rect x="-75" width="900" fill="#ffffff" y="-37.499999" height="449.999989" fill-opacity="1"/><path fill="#737373" d="M 365.097656 288.144531 C 360.417969 282.476562 352.910156 281.308594 343.058594 281.308594 L 240.894531 281.308594 C 236.308594 281.308594 235.398438 279.367188 235.398438 276.238281 C 235.398438 272.765625 239.34375 271.828125 240.296875 271.640625 L 339.1875 271.640625 C 343.339844 271.640625 347.347656 268.492188 348.320312 264.472656 L 364.714844 196.875 C 365.242188 194.652344 364.796875 192.402344 363.464844 190.714844 C 362.140625 189.019531 360.0625 188.058594 357.777344 188.058594 L 224.007812 188.058594 L 221.40625 177.429688 C 220.425781 173.410156 216.410156 170.265625 212.28125 170.265625 L 186.300781 170.265625 C 184.375 170.265625 182.816406 171.824219 182.816406 173.746094 C 182.816406 175.667969 184.375 177.230469 186.300781 177.230469 L 212.28125 177.230469 C 213.226562 177.230469 214.421875 178.164062 214.640625 179.078125 L 235.816406 265.789062 C 232.261719 267.332031 228.445312 270.503906 228.445312 276.238281 C 228.445312 283.765625 233.113281 288.261719 240.90625 288.261719 L 343.078125 288.261719 C 352.519531 288.261719 357.199219 289.46875 359.738281 292.570312 C 360.417969 293.40625 361.425781 293.839844 362.429688 293.839844 C 363.210938 293.839844 364 293.585938 364.636719 293.050781 C 366.105469 291.828125 366.320312 289.632812 365.097656 288.144531 Z M 316.777344 219.699219 L 314.15625 240.015625 L 269.617188 240.015625 L 266.832031 219.699219 Z M 265.890625 212.746094 L 263.496094 195.105469 L 319.941406 195.195312 L 317.675781 212.753906 L 265.890625 212.753906 Z M 347.085938 240.023438 L 321.175781 240.023438 L 323.796875 219.710938 L 351.992188 219.710938 Z M 313.257812 246.980469 L 310.980469 264.683594 L 272.964844 264.683594 L 270.550781 246.980469 Z M 262.578125 240.023438 L 236.6875 240.023438 L 231.726562 219.710938 L 259.8125 219.710938 Z M 263.523438 246.980469 L 265.953125 264.683594 L 242.71875 264.683594 L 238.382812 246.980469 Z M 339.1875 264.683594 L 318.011719 264.683594 L 320.285156 246.980469 L 345.390625 246.980469 L 341.546875 262.832031 C 341.335938 263.757812 340.128906 264.683594 339.1875 264.683594 Z M 357.941406 195.242188 L 353.6875 212.746094 L 324.695312 212.746094 L 326.945312 195.195312 Z M 256.457031 195.09375 L 258.863281 212.734375 L 230.03125 212.734375 L 225.703125 195.042969 Z M 256.457031 195.09375 " fill-opacity="1" fill-rule="nonzero"/><path fill="#737373" d="M 242.65625 291.191406 C 233.914062 291.191406 226.8125 298.292969 226.8125 307.027344 C 226.8125 315.761719 233.914062 322.878906 242.65625 322.878906 C 251.378906 322.878906 258.488281 315.761719 258.488281 307.027344 C 258.488281 298.292969 251.378906 291.191406 242.65625 291.191406 Z M 242.65625 312.660156 C 239.542969 312.660156 237.023438 310.136719 237.023438 307.027344 C 237.023438 303.925781 239.542969 301.394531 242.65625 301.394531 C 245.757812 301.394531 248.285156 303.925781 248.285156 307.027344 C 248.285156 310.136719 245.757812 312.660156 242.65625 312.660156 Z M 242.65625 312.660156 " fill-opacity="1" fill-rule="nonzero"/><path fill="#737373" d="M 341.664062 291.191406 C 332.929688 291.191406 325.828125 298.292969 325.828125 307.027344 C 325.828125 315.761719 332.929688 322.878906 341.664062 322.878906 C 350.40625 322.878906 357.507812 315.761719 357.507812 307.027344 C 357.507812 298.292969 350.40625 291.191406 341.664062 291.191406 Z M 341.664062 312.660156 C 338.5625 312.660156 336.050781 310.136719 336.050781 307.027344 C 336.050781 303.925781 338.5625 301.394531 341.664062 301.394531 C 344.773438 301.394531 347.292969 303.925781 347.292969 307.027344 C 347.292969 310.136719 344.773438 312.660156 341.664062 312.660156 Z M 341.664062 312.660156 " fill-opacity="1" fill-rule="nonzero"/><path fill="#737373" d="M 204.539062 224.789062 C 208.691406 220.734375 211.449219 216.535156 213.605469 212.398438 L 207.195312 186.136719 L 186.289062 186.136719 C 184.3125 186.136719 182.472656 185.628906 180.820312 184.8125 C 181.246094 185.808594 181.808594 186.851562 182.5625 187.949219 C 195.441406 206.367188 187.660156 241.332031 204.539062 224.789062 Z M 204.539062 224.789062 " fill-opacity="1" fill-rule="nonzero"/><path fill="#737373" d="M 219.664062 277.789062 C 206.1875 281.46875 191.785156 282.566406 177.121094 280.480469 C 169.3125 271.039062 163.527344 263.277344 180.414062 251.378906 C 200.835938 236.976562 181.78125 227.679688 166.183594 225.421875 C 150.601562 223.210938 142.96875 189.816406 134.222656 174.117188 C 125.480469 158.429688 118.289062 184.4375 112.148438 193.226562 C 107.90625 199.332031 95.035156 194.769531 87.492188 191.367188 C 85.984375 181.183594 85.949219 170.601562 87.589844 159.898438 C 95.027344 111.488281 134.46875 75.882812 181.058594 71.003906 C 178.816406 81.875 177.25 99.859375 189.308594 106.054688 C 207.050781 115.160156 198.996094 112.765625 173.785156 117.445312 C 148.589844 122.117188 159.628906 142.957031 180.285156 154.09375 C 185.175781 156.734375 187.179688 159.089844 187.613281 161.375 L 212.28125 161.375 C 220.472656 161.375 228.109375 167.371094 230.050781 175.332031 L 230.992188 179.179688 L 245.359375 179.179688 C 253.238281 169.511719 255.042969 147.191406 233.152344 152.851562 C 206.578125 159.734375 232.832031 123.8125 247.199219 123.675781 C 259.316406 123.558594 266.832031 115.914062 271.042969 105.953125 C 288.445312 125.636719 298.386719 151.617188 297.523438 179.179688 L 308.1875 179.179688 C 309.820312 121.4375 268.230469 69.988281 209.699219 60.992188 C 146.285156 51.230469 86.785156 94.882812 77.035156 158.273438 C 67.285156 221.667969 110.933594 281.171875 174.328125 290.921875 C 191.035156 293.488281 207.421875 292.253906 222.75 288.035156 C 220.945312 285.152344 219.890625 281.679688 219.664062 277.789062 Z M 219.664062 277.789062 " fill-opacity="1" fill-rule="nonzero"/><path fill="#737373" d="M 127.730469 140.171875 C 135.695312 133.425781 142.160156 132.835938 145.714844 120.085938 C 149.269531 107.351562 130.144531 114.007812 121.773438 120.148438 C 114.398438 125.5625 112.085938 138.296875 115.269531 145.171875 C 118.488281 152.035156 119.785156 146.921875 127.730469 140.171875 Z M 127.730469 140.171875 " fill-opacity="1" fill-rule="nonzero"/><g fill="#737373" fill-opacity="1"><g transform="translate(377.208931, 199.03456)"><g><path d="M 13.109375 -30.515625 L 27.238281 -30.515625 L 27.238281 -37.609375 L 3.761719 -37.609375 L 3.761719 0 L 27.238281 0 L 27.238281 -7.09375 L 13.109375 -7.09375 L 13.109375 -15.851562 L 26.164062 -15.851562 L 26.164062 -22.726562 L 13.109375 -22.726562 Z M 13.109375 -30.515625 "/></g></g></g><g fill="#737373" fill-opacity="1"><g transform="translate(406.704735, 199.03456)"><g><path d="M 1.34375 -11.550781 L 16.925781 -11.550781 L 16.925781 -16.761719 L 1.34375 -16.761719 Z M 1.34375 -11.550781 "/></g></g></g><g fill="#737373" fill-opacity="1"><g transform="translate(424.971716, 199.03456)"><g><path d="M 19.019531 0.914062 C 27.507812 0.914062 32.988281 -5.320312 32.988281 -14.667969 L 23.53125 -14.667969 C 23.53125 -9.5625 21.542969 -6.179688 18.644531 -6.179688 C 14.722656 -6.179688 12.089844 -11.660156 12.089844 -19.878906 C 12.089844 -27.402344 14.722656 -32.398438 18.644531 -32.398438 C 21.542969 -32.398438 23.425781 -29.335938 23.53125 -24.605469 L 32.988281 -24.605469 C 32.988281 -33.527344 27.292969 -39.4375 18.804688 -39.4375 C 9.1875 -39.4375 2.792969 -31.539062 2.792969 -19.664062 C 2.792969 -7.308594 9.242188 0.914062 19.019531 0.914062 Z M 19.019531 0.914062 "/></g></g></g><g fill="#737373" fill-opacity="1"><g transform="translate(460.431151, 199.03456)"><g><path d="M 15.097656 0.484375 C 22.941406 0.484375 28.152344 -5.695312 28.152344 -13.59375 C 28.152344 -21.542969 22.941406 -27.722656 15.097656 -27.722656 C 7.359375 -27.722656 2.148438 -21.542969 2.148438 -13.699219 C 2.148438 -4.835938 7.144531 0.484375 15.097656 0.484375 Z M 15.097656 -5.964844 C 12.679688 -5.964844 11.066406 -8.703125 11.066406 -13.808594 C 11.066406 -17.730469 12.679688 -21.382812 15.097656 -21.382812 C 17.570312 -21.382812 19.179688 -17.785156 19.179688 -13.753906 C 19.179688 -9.617188 17.570312 -5.964844 15.097656 -5.964844 Z M 15.097656 -5.964844 "/></g></g></g><g fill="#737373" fill-opacity="1"><g transform="translate(490.679123, 199.03456)"><g><path d="M 35.78125 -27.722656 C 32.074219 -27.722656 29.066406 -25.84375 27.9375 -23.15625 L 27.402344 -23.15625 C 26.757812 -25.84375 23.695312 -27.722656 19.933594 -27.722656 C 16.332031 -27.722656 13.484375 -25.949219 12.355469 -23.316406 L 11.875 -23.316406 L 11.875 -27.292969 L 2.953125 -27.292969 L 2.953125 0 L 11.875 0 L 11.875 -20.253906 C 11.875 -20.253906 13.378906 -21.4375 15.472656 -21.4375 C 17.570312 -21.4375 19.019531 -19.988281 19.019531 -17.785156 L 19.019531 0 L 27.9375 0 L 27.882812 -20.253906 C 27.882812 -20.253906 29.390625 -21.4375 31.539062 -21.4375 C 33.578125 -21.4375 35.03125 -19.988281 35.03125 -17.785156 L 35.03125 0 L 43.949219 0 L 43.949219 -19.664062 C 43.949219 -24.5 40.617188 -27.722656 35.78125 -27.722656 Z M 35.78125 -27.722656 "/></g></g></g><g fill="#737373" fill-opacity="1"><g transform="translate(537.152477, 199.03456)"><g><path d="M 35.78125 -27.722656 C 32.074219 -27.722656 29.066406 -25.84375 27.9375 -23.15625 L 27.402344 -23.15625 C 26.757812 -25.84375 23.695312 -27.722656 19.933594 -27.722656 C 16.332031 -27.722656 13.484375 -25.949219 12.355469 -23.316406 L 11.875 -23.316406 L 11.875 -27.292969 L 2.953125 -27.292969 L 2.953125 0 L 11.875 0 L 11.875 -20.253906 C 11.875 -20.253906 13.378906 -21.4375 15.472656 -21.4375 C 17.570312 -21.4375 19.019531 -19.988281 19.019531 -17.785156 L 19.019531 0 L 27.9375 0 L 27.882812 -20.253906 C 27.882812 -20.253906 29.390625 -21.4375 31.539062 -21.4375 C 33.578125 -21.4375 35.03125 -19.988281 35.03125 -17.785156 L 35.03125 0 L 43.949219 0 L 43.949219 -19.664062 C 43.949219 -24.5 40.617188 -27.722656 35.78125 -27.722656 Z M 35.78125 -27.722656 "/></g></g></g><g fill="#737373" fill-opacity="1"><g transform="translate(583.625831, 199.03456)"><g><path d="M 27.132812 -8.113281 C 23.800781 -6.984375 19.933594 -6.554688 17.085938 -6.769531 C 13.21875 -6.984375 10.746094 -8.757812 10.476562 -11.980469 L 10.476562 -12.355469 L 27.9375 -12.355469 L 27.9375 -13.484375 C 27.5625 -23.265625 24.015625 -27.722656 15.042969 -27.722656 C 7.308594 -27.722656 2.148438 -22.191406 2.148438 -13.648438 C 2.148438 -2.792969 9.457031 0.484375 16.546875 0.484375 C 21.007812 0.429688 25.519531 -0.859375 27.238281 -1.988281 Z M 10.53125 -15.742188 C 10.691406 -18.964844 12.625 -21.0625 15.257812 -21.0625 C 18 -21.0625 19.664062 -19.128906 19.664062 -15.796875 Z M 10.53125 -15.742188 "/></g></g></g><g fill="#737373" fill-opacity="1"><g transform="translate(613.71262, 199.03456)"><g><path d="M 19.71875 -27.722656 C 16.65625 -27.722656 13.699219 -25.949219 12.355469 -23.265625 L 11.875 -23.265625 L 11.875 -27.292969 L 2.953125 -27.292969 L 2.953125 0 L 11.875 0 L 11.875 -20.253906 C 11.875 -20.253906 13.164062 -21.4375 14.9375 -21.4375 C 16.546875 -21.4375 17.621094 -20.203125 17.675781 -18.320312 L 17.675781 -15.851562 L 26.542969 -15.851562 L 26.542969 -19.933594 C 26.488281 -24.605469 23.800781 -27.722656 19.71875 -27.722656 Z M 19.71875 -27.722656 "/></g></g></g><g fill="#737373" fill-opacity="1"><g transform="translate(641.489193, 199.03456)"><g><path d="M 15.257812 0.484375 C 22.886719 0.484375 27.9375 -4.296875 27.9375 -11.445312 L 19.019531 -11.445312 C 19.019531 -8.113281 17.515625 -5.964844 15.257812 -5.964844 C 12.734375 -5.964844 11.066406 -9.132812 11.066406 -13.863281 C 11.066406 -18.375 12.679688 -21.382812 15.097656 -21.382812 C 17.40625 -21.382812 19.019531 -19.179688 19.019531 -15.902344 L 27.9375 -15.902344 C 27.9375 -22.996094 22.886719 -27.722656 15.257812 -27.722656 C 7.414062 -27.722656 2.148438 -21.921875 2.148438 -13.269531 C 2.148438 -5.050781 7.414062 0.484375 15.257812 0.484375 Z M 15.257812 0.484375 "/></g></g></g><g fill="#737373" fill-opacity="1"><g transform="translate(671.414817, 199.03456)"><g><path d="M 27.132812 -8.113281 C 23.800781 -6.984375 19.933594 -6.554688 17.085938 -6.769531 C 13.21875 -6.984375 10.746094 -8.757812 10.476562 -11.980469 L 10.476562 -12.355469 L 27.9375 -12.355469 L 27.9375 -13.484375 C 27.5625 -23.265625 24.015625 -27.722656 15.042969 -27.722656 C 7.308594 -27.722656 2.148438 -22.191406 2.148438 -13.648438 C 2.148438 -2.792969 9.457031 0.484375 16.546875 0.484375 C 21.007812 0.429688 25.519531 -0.859375 27.238281 -1.988281 Z M 10.53125 -15.742188 C 10.691406 -18.964844 12.625 -21.0625 15.257812 -21.0625 C 18 -21.0625 19.664062 -19.128906 19.664062 -15.796875 Z M 10.53125 -15.742188 "/></g></g></g></svg>