<svg xmlns="http://www.w3.org/2000/svg" xmlns:xlink="http://www.w3.org/1999/xlink" width="1000" zoomAndPan="magnify" viewBox="0 0 750 374.999991" height="500" preserveAspectRatio="xMidYMid meet" version="1.0"><defs><g/><clipPath id="86f0da5592"><path d="M 144 307 L 215 307 L 215 327.925781 L 144 327.925781 Z M 144 307 " clip-rule="nonzero"/></clipPath><clipPath id="d33401cd71"><path d="M 244 307 L 315 307 L 315 327.925781 L 244 327.925781 Z M 244 307 " clip-rule="nonzero"/></clipPath><clipPath id="071cd58b3c"><path d="M 139 47.425781 L 320 47.425781 L 320 208 L 139 208 Z M 139 47.425781 " clip-rule="nonzero"/></clipPath></defs><rect x="-75" width="900" fill="#ffffff" y="-37.499999" height="449.999989" fill-opacity="1"/><rect x="-75" width="900" fill="#ffffff" y="-37.499999" height="449.999989" fill-opacity="1"/><g clip-path="url(#86f0da5592)"><path fill="#737373" d="M 144.796875 307.5625 L 214.832031 307.5625 L 214.832031 327.574219 L 144.796875 327.574219 Z M 144.796875 307.5625 " fill-opacity="1" fill-rule="nonzero"/></g><path fill="#737373" d="M 116.230469 175.992188 L 126.335938 206.308594 C 128.789062 203.355469 131.9375 201.253906 135.339844 199.953125 L 121.734375 159.132812 C 120.433594 155.179688 117.582031 152.078125 113.828125 150.328125 C 110.027344 148.578125 105.824219 148.476562 101.921875 150.027344 L 100.871094 150.429688 L 104.226562 162.035156 C 109.828125 164.984375 114.179688 169.890625 116.230469 175.992188 Z M 116.230469 175.992188 " fill-opacity="1" fill-rule="nonzero"/><path fill="#737373" d="M 154.800781 287.550781 L 154.800781 297.554688 L 204.828125 297.554688 L 204.828125 257.835938 C 204.828125 252.984375 202.476562 248.429688 198.523438 245.628906 L 149.546875 210.609375 C 144.597656 207.109375 137.742188 208.058594 133.992188 212.8125 C 131.640625 215.714844 130.9375 219.464844 131.839844 222.867188 L 132.089844 223.667969 L 132.238281 224.117188 C 132.941406 225.917969 134.140625 227.570312 135.742188 228.871094 L 172.910156 258.636719 C 175.113281 260.335938 175.460938 263.488281 173.710938 265.640625 C 172.011719 267.839844 168.859375 268.191406 166.707031 266.441406 L 129.488281 236.722656 C 125.886719 233.773438 123.433594 229.921875 122.234375 225.71875 L 106.726562 179.195312 C 105.324219 174.992188 102.171875 171.640625 98.171875 170.039062 C 94.519531 168.589844 90.515625 168.589844 86.914062 170.039062 L 85.863281 170.4375 L 107.777344 244.929688 C 108.628906 247.980469 110.429688 250.582031 112.929688 252.53125 L 152.851562 283.597656 C 154.101562 284.550781 154.800781 286 154.800781 287.550781 Z M 154.800781 287.550781 " fill-opacity="1" fill-rule="nonzero"/><path fill="#737373" d="M 372.765625 170.039062 C 369.164062 168.589844 365.164062 168.589844 361.511719 170.039062 C 357.507812 171.640625 354.355469 174.992188 352.957031 179.195312 L 337.398438 225.820312 C 336.246094 229.96875 333.796875 233.824219 330.195312 236.722656 L 292.976562 266.441406 C 290.824219 268.191406 287.671875 267.839844 285.972656 265.640625 C 284.21875 263.488281 284.570312 260.335938 286.769531 258.636719 L 323.941406 228.871094 C 325.492188 227.621094 326.691406 226.019531 327.394531 224.21875 C 327.441406 224.015625 327.492188 223.816406 327.59375 223.617188 C 327.59375 223.566406 327.792969 223.066406 327.792969 222.96875 L 327.792969 222.867188 C 328.742188 219.464844 328.042969 215.714844 325.691406 212.8125 C 321.890625 208.058594 315.085938 207.109375 310.132812 210.609375 L 261.15625 245.628906 C 257.207031 248.429688 254.855469 252.984375 254.855469 257.835938 L 254.855469 297.554688 L 304.882812 297.554688 L 304.882812 287.550781 C 304.882812 286 305.582031 284.550781 306.832031 283.597656 L 346.753906 252.53125 C 349.253906 250.582031 351.054688 247.980469 351.90625 244.929688 L 373.816406 170.4375 Z M 372.765625 170.039062 " fill-opacity="1" fill-rule="nonzero"/><path fill="#737373" d="M 333.347656 206.308594 L 343.453125 175.992188 C 345.503906 169.890625 349.855469 164.984375 355.457031 161.984375 L 358.808594 150.429688 L 357.757812 150.027344 C 353.855469 148.476562 349.65625 148.578125 345.851562 150.328125 C 342.101562 152.078125 339.25 155.179688 337.949219 159.183594 L 324.339844 199.953125 C 327.742188 201.253906 330.894531 203.355469 333.347656 206.308594 Z M 333.347656 206.308594 " fill-opacity="1" fill-rule="nonzero"/><g clip-path="url(#d33401cd71)"><path fill="#737373" d="M 244.847656 307.5625 L 314.886719 307.5625 L 314.886719 327.574219 L 244.847656 327.574219 Z M 244.847656 307.5625 " fill-opacity="1" fill-rule="nonzero"/></g><g clip-path="url(#071cd58b3c)"><path fill="#737373" d="M 319.890625 104.453125 L 319.890625 98.652344 C 319.890625 70.335938 296.925781 47.425781 268.660156 47.425781 L 266.109375 47.425781 C 252.503906 47.425781 239.496094 52.828125 229.890625 62.433594 C 220.285156 52.828125 207.230469 47.425781 193.671875 47.425781 L 191.121094 47.425781 C 162.804688 47.425781 139.894531 70.386719 139.894531 98.652344 L 139.894531 104.453125 C 139.894531 119.113281 146.148438 133.019531 157.101562 142.773438 L 229.941406 207.507812 L 302.78125 142.773438 C 313.734375 133.070312 319.988281 119.113281 319.988281 104.453125 Z M 259.855469 127.464844 L 239.847656 127.464844 L 239.847656 147.476562 L 219.835938 147.476562 L 219.835938 127.464844 L 199.824219 127.464844 L 199.824219 107.457031 L 219.835938 107.457031 L 219.835938 87.445312 L 239.847656 87.445312 L 239.847656 107.457031 L 259.855469 107.457031 Z M 259.855469 127.464844 " fill-opacity="1" fill-rule="nonzero"/></g><g fill="#737373" fill-opacity="1"><g transform="translate(398.244757, 199.03456)"><g><path d="M 32.453125 -37.609375 L 23.101562 -37.609375 L 23.101562 -22.78125 L 13.109375 -22.78125 L 13.109375 -37.609375 L 3.761719 -37.609375 L 3.761719 0 L 13.109375 0 L 13.109375 -15.851562 L 23.101562 -15.851562 L 23.101562 0 L 32.453125 0 Z M 32.453125 -37.609375 "/></g></g></g><g fill="#737373" fill-opacity="1"><g transform="translate(434.402639, 199.03456)"><g><path d="M 27.132812 -8.113281 C 23.800781 -6.984375 19.933594 -6.554688 17.085938 -6.769531 C 13.21875 -6.984375 10.746094 -8.757812 10.476562 -11.980469 L 10.476562 -12.355469 L 27.9375 -12.355469 L 27.9375 -13.484375 C 27.5625 -23.265625 24.015625 -27.722656 15.042969 -27.722656 C 7.308594 -27.722656 2.148438 -22.191406 2.148438 -13.648438 C 2.148438 -2.792969 9.457031 0.484375 16.546875 0.484375 C 21.007812 0.429688 25.519531 -0.859375 27.238281 -1.988281 Z M 10.53125 -15.742188 C 10.691406 -18.964844 12.625 -21.0625 15.257812 -21.0625 C 18 -21.0625 19.664062 -19.128906 19.664062 -15.796875 Z M 10.53125 -15.742188 "/></g></g></g><g fill="#737373" fill-opacity="1"><g transform="translate(464.489437, 199.03456)"><g><path d="M 29.335938 -6.5 L 28.53125 -6.5 C 28.046875 -6.5 27.722656 -6.878906 27.722656 -7.523438 L 27.722656 -15.257812 C 27.722656 -22.78125 22.621094 -27.722656 14.882812 -27.722656 C 7.523438 -27.722656 2.257812 -23.425781 2.257812 -17.730469 L 10.585938 -17.730469 C 10.585938 -19.394531 12.140625 -21.222656 14.882812 -21.222656 C 17.570312 -21.222656 19.394531 -19.71875 19.394531 -17.460938 C 19.394531 -16.871094 18.429688 -16.332031 16.871094 -16.011719 C 16.066406 -15.851562 15.042969 -15.742188 9.457031 -15.203125 C 4.890625 -14.667969 2.09375 -11.765625 2.09375 -7.789062 C 2.09375 -2.902344 5.535156 0.375 10.746094 0.375 C 15.097656 0.375 19.128906 -2.472656 20.738281 -6.769531 L 21.113281 -6.769531 L 21.007812 -5.855469 C 20.523438 -2.363281 22.621094 0 26.328125 0 L 29.335938 0 Z M 13.863281 -5.964844 C 11.875 -5.964844 10.585938 -7.039062 10.585938 -8.703125 C 10.585938 -12.25 17.246094 -10.960938 19.234375 -12.894531 L 19.394531 -12.894531 L 19.394531 -10.585938 C 19.074219 -7.789062 16.871094 -5.964844 13.863281 -5.964844 Z M 13.863281 -5.964844 "/></g></g></g><g fill="#737373" fill-opacity="1"><g transform="translate(494.737409, 199.03456)"><g><path d="M 2.953125 0 L 11.875 0 L 11.875 -38.683594 L 2.953125 -38.683594 Z M 2.953125 0 "/></g></g></g><g fill="#737373" fill-opacity="1"><g transform="translate(509.512177, 199.03456)"><g><path d="M 14.023438 -20.578125 L 20.46875 -20.578125 L 20.46875 -27.078125 L 14.023438 -27.078125 L 14.023438 -34.171875 L 5.105469 -34.171875 L 5.105469 -27.078125 L 0.589844 -27.078125 L 0.589844 -20.578125 L 5.105469 -20.578125 L 5.105469 -8.917969 C 5.105469 -3.546875 8.917969 0 14.722656 0 L 20.578125 0 L 20.578125 -6.5 L 16.546875 -6.5 C 15.042969 -6.5 14.023438 -7.628906 14.023438 -9.347656 Z M 14.023438 -20.578125 "/></g></g></g><g fill="#737373" fill-opacity="1"><g transform="translate(531.432553, 199.03456)"><g><path d="M 28.53125 0 L 28.476562 -19.503906 C 28.476562 -24.390625 25.359375 -27.667969 20.738281 -27.667969 C 16.925781 -27.667969 13.433594 -25.734375 12.304688 -23.050781 L 11.820312 -23.050781 L 11.875 -38.683594 L 2.953125 -38.683594 L 2.953125 0 L 11.875 0 L 11.875 -20.203125 C 11.875 -20.203125 13.433594 -21.382812 15.796875 -21.382812 C 18.050781 -21.382812 19.558594 -19.878906 19.558594 -17.621094 L 19.558594 0 Z M 28.53125 0 "/></g></g></g><g fill="#737373" fill-opacity="1"><g transform="translate(562.432702, 199.03456)"><g><path d="M 15.257812 0.484375 C 22.886719 0.484375 27.9375 -4.296875 27.9375 -11.445312 L 19.019531 -11.445312 C 19.019531 -8.113281 17.515625 -5.964844 15.257812 -5.964844 C 12.734375 -5.964844 11.066406 -9.132812 11.066406 -13.863281 C 11.066406 -18.375 12.679688 -21.382812 15.097656 -21.382812 C 17.40625 -21.382812 19.019531 -19.179688 19.019531 -15.902344 L 27.9375 -15.902344 C 27.9375 -22.996094 22.886719 -27.722656 15.257812 -27.722656 C 7.414062 -27.722656 2.148438 -21.921875 2.148438 -13.269531 C 2.148438 -5.050781 7.414062 0.484375 15.257812 0.484375 Z M 15.257812 0.484375 "/></g></g></g><g fill="#737373" fill-opacity="1"><g transform="translate(592.358326, 199.03456)"><g><path d="M 29.335938 -6.5 L 28.53125 -6.5 C 28.046875 -6.5 27.722656 -6.878906 27.722656 -7.523438 L 27.722656 -15.257812 C 27.722656 -22.78125 22.621094 -27.722656 14.882812 -27.722656 C 7.523438 -27.722656 2.257812 -23.425781 2.257812 -17.730469 L 10.585938 -17.730469 C 10.585938 -19.394531 12.140625 -21.222656 14.882812 -21.222656 C 17.570312 -21.222656 19.394531 -19.71875 19.394531 -17.460938 C 19.394531 -16.871094 18.429688 -16.332031 16.871094 -16.011719 C 16.066406 -15.851562 15.042969 -15.742188 9.457031 -15.203125 C 4.890625 -14.667969 2.09375 -11.765625 2.09375 -7.789062 C 2.09375 -2.902344 5.535156 0.375 10.746094 0.375 C 15.097656 0.375 19.128906 -2.472656 20.738281 -6.769531 L 21.113281 -6.769531 L 21.007812 -5.855469 C 20.523438 -2.363281 22.621094 0 26.328125 0 L 29.335938 0 Z M 13.863281 -5.964844 C 11.875 -5.964844 10.585938 -7.039062 10.585938 -8.703125 C 10.585938 -12.25 17.246094 -10.960938 19.234375 -12.894531 L 19.394531 -12.894531 L 19.394531 -10.585938 C 19.074219 -7.789062 16.871094 -5.964844 13.863281 -5.964844 Z M 13.863281 -5.964844 "/></g></g></g><g fill="#737373" fill-opacity="1"><g transform="translate(622.606298, 199.03456)"><g><path d="M 19.71875 -27.722656 C 16.65625 -27.722656 13.699219 -25.949219 12.355469 -23.265625 L 11.875 -23.265625 L 11.875 -27.292969 L 2.953125 -27.292969 L 2.953125 0 L 11.875 0 L 11.875 -20.253906 C 11.875 -20.253906 13.164062 -21.4375 14.9375 -21.4375 C 16.546875 -21.4375 17.621094 -20.203125 17.675781 -18.320312 L 17.675781 -15.851562 L 26.542969 -15.851562 L 26.542969 -19.933594 C 26.488281 -24.605469 23.800781 -27.722656 19.71875 -27.722656 Z M 19.71875 -27.722656 "/></g></g></g><g fill="#737373" fill-opacity="1"><g transform="translate(650.382852, 199.03456)"><g><path d="M 27.132812 -8.113281 C 23.800781 -6.984375 19.933594 -6.554688 17.085938 -6.769531 C 13.21875 -6.984375 10.746094 -8.757812 10.476562 -11.980469 L 10.476562 -12.355469 L 27.9375 -12.355469 L 27.9375 -13.484375 C 27.5625 -23.265625 24.015625 -27.722656 15.042969 -27.722656 C 7.308594 -27.722656 2.148438 -22.191406 2.148438 -13.648438 C 2.148438 -2.792969 9.457031 0.484375 16.546875 0.484375 C 21.007812 0.429688 25.519531 -0.859375 27.238281 -1.988281 Z M 10.53125 -15.742188 C 10.691406 -18.964844 12.625 -21.0625 15.257812 -21.0625 C 18 -21.0625 19.664062 -19.128906 19.664062 -15.796875 Z M 10.53125 -15.742188 "/></g></g></g></svg>