<svg xmlns="http://www.w3.org/2000/svg" xmlns:xlink="http://www.w3.org/1999/xlink" width="1000" zoomAndPan="magnify" viewBox="0 0 750 374.999991" height="500" preserveAspectRatio="xMidYMid meet" version="1.0"><defs><g/><clipPath id="1866373173"><path d="M 50.042969 49.371094 L 352.292969 49.371094 L 352.292969 325.371094 L 50.042969 325.371094 Z M 50.042969 49.371094 " clip-rule="nonzero"/></clipPath></defs><rect x="-75" width="900" fill="#ffffff" y="-37.499999" height="449.999989" fill-opacity="1"/><rect x="-75" width="900" fill="#ffffff" y="-37.499999" height="449.999989" fill-opacity="1"/><g clip-path="url(#1866373173)"><path fill="#737373" d="M 324.996094 49.570312 L 77.410156 49.570312 C 62.320312 49.570312 50.042969 61.847656 50.042969 76.9375 L 50.042969 231.667969 C 50.042969 246.757812 62.320312 259.035156 77.410156 259.035156 L 150.351562 259.035156 L 150.351562 285.019531 L 120.992188 285.019531 C 107.726562 285.019531 96.933594 294.082031 96.933594 305.21875 L 96.933594 320.542969 C 96.933594 323.238281 99.117188 325.421875 101.8125 325.421875 L 300.59375 325.421875 C 303.285156 325.421875 305.46875 323.238281 305.46875 320.542969 L 305.46875 305.21875 C 305.46875 294.082031 294.675781 285.019531 281.410156 285.019531 L 252.050781 285.019531 L 252.050781 259.035156 L 324.996094 259.035156 C 340.085938 259.035156 352.363281 246.757812 352.363281 231.667969 L 352.363281 76.9375 C 352.363281 61.847656 340.085938 49.570312 324.996094 49.570312 Z M 295.714844 305.21875 L 295.714844 315.667969 L 106.6875 315.667969 L 106.6875 305.21875 C 106.6875 299.554688 113.238281 294.769531 120.992188 294.769531 L 281.410156 294.769531 C 289.164062 294.769531 295.714844 299.554688 295.714844 305.21875 Z M 242.300781 285.019531 L 160.101562 285.019531 L 160.101562 259.035156 L 242.300781 259.035156 Z M 342.609375 231.667969 C 342.609375 241.382812 334.707031 249.285156 324.996094 249.285156 L 77.410156 249.285156 C 67.695312 249.285156 59.792969 241.382812 59.792969 231.667969 L 59.792969 76.9375 C 59.792969 67.226562 67.695312 59.324219 77.410156 59.324219 L 324.996094 59.324219 C 334.707031 59.324219 342.609375 67.226562 342.609375 76.9375 Z M 325.558594 68.378906 L 76.84375 68.378906 C 72.4375 68.378906 68.851562 71.964844 68.851562 76.375 L 68.851562 224.40625 C 68.851562 227.097656 71.03125 229.28125 73.726562 229.28125 L 328.679688 229.28125 C 331.371094 229.28125 333.554688 227.097656 333.554688 224.40625 L 333.554688 76.375 C 333.554688 71.964844 329.96875 68.378906 325.558594 68.378906 Z M 323.800781 219.527344 L 78.601562 219.527344 L 78.601562 78.128906 L 323.800781 78.128906 Z M 216.777344 206.589844 C 218.472656 206.542969 220.019531 205.621094 220.867188 204.15625 L 230.570312 187.347656 L 236.464844 187.347656 L 239.414062 192.453125 L 229.710938 209.257812 C 228.863281 210.726562 228.839844 212.53125 229.644531 214.019531 C 230.453125 215.511719 231.976562 216.476562 233.667969 216.566406 C 234.195312 216.59375 234.71875 216.609375 235.238281 216.609375 C 244.96875 216.609375 253.589844 211.644531 258.511719 203.113281 C 263.316406 194.796875 263.210938 184.316406 258.476562 176.085938 L 282.195312 135.007812 C 291.691406 134.988281 300.820312 129.839844 305.621094 121.519531 C 310.808594 112.535156 310.519531 101.976562 304.847656 93.28125 C 303.921875 91.859375 302.324219 91.027344 300.632812 91.070312 C 298.9375 91.113281 297.390625 92.039062 296.542969 93.503906 L 286.839844 110.3125 L 280.945312 110.3125 L 277.996094 105.207031 L 287.699219 88.398438 C 288.546875 86.933594 288.570312 85.128906 287.765625 83.640625 C 286.957031 82.148438 285.433594 81.183594 283.742188 81.09375 C 273.375 80.53125 264.085938 85.558594 258.898438 94.542969 C 254.09375 102.863281 254.199219 113.339844 258.933594 121.574219 L 235.214844 162.652344 C 225.71875 162.671875 216.589844 167.820312 211.789062 176.136719 C 206.601562 185.125 206.890625 195.683594 212.5625 204.378906 C 213.488281 205.800781 215.074219 206.632812 216.777344 206.589844 Z M 220.234375 181.015625 C 223.660156 175.082031 230.523438 171.675781 237.324219 172.535156 C 239.265625 172.78125 241.175781 171.835938 242.15625 170.136719 L 268.882812 123.847656 C 269.863281 122.144531 269.730469 120.023438 268.542969 118.460938 C 264.402344 113.003906 263.917969 105.351562 267.34375 99.421875 C 268.953125 96.632812 271.179688 94.441406 273.800781 92.96875 L 268.144531 102.765625 C 267.273438 104.277344 267.273438 106.136719 268.144531 107.644531 L 273.90625 117.625 C 274.777344 119.132812 276.386719 120.0625 278.128906 120.0625 L 289.65625 120.0625 C 291.398438 120.0625 293.007812 119.132812 293.878906 117.625 L 299.535156 107.824219 C 299.570312 110.835938 298.785156 113.859375 297.175781 116.644531 C 293.753906 122.574219 286.886719 125.984375 280.089844 125.125 C 278.140625 124.878906 276.234375 125.824219 275.253906 127.523438 L 248.527344 173.8125 C 247.546875 175.515625 247.679688 177.636719 248.867188 179.199219 C 253.011719 184.65625 253.492188 192.308594 250.066406 198.238281 C 248.460938 201.027344 246.234375 203.214844 243.609375 204.691406 L 249.265625 194.890625 C 250.136719 193.382812 250.136719 191.523438 249.265625 190.015625 L 243.503906 180.035156 C 242.632812 178.527344 241.023438 177.597656 239.28125 177.597656 L 227.757812 177.597656 C 226.015625 177.597656 224.40625 178.527344 223.535156 180.035156 L 217.875 189.832031 C 217.839844 186.824219 218.625 183.800781 220.234375 181.015625 Z M 150.019531 176.679688 C 165.375 176.679688 177.867188 164.183594 177.867188 148.828125 C 177.867188 133.472656 165.375 120.980469 150.019531 120.980469 C 134.664062 120.980469 122.171875 133.472656 122.171875 148.828125 C 122.171875 164.183594 134.664062 176.679688 150.019531 176.679688 Z M 150.019531 130.734375 C 159.996094 130.734375 168.113281 138.851562 168.113281 148.828125 C 168.113281 158.808594 159.996094 166.925781 150.019531 166.925781 C 140.039062 166.925781 131.921875 158.808594 131.921875 148.828125 C 131.921875 138.851562 140.039062 130.734375 150.019531 130.734375 Z M 96.234375 158.582031 L 102.519531 161 C 103.667969 165.507812 105.445312 169.800781 107.828125 173.808594 L 105.09375 179.964844 C 104.273438 181.808594 104.675781 183.96875 106.101562 185.394531 L 113.453125 192.746094 C 114.878906 194.175781 117.039062 194.574219 118.882812 193.753906 L 125.042969 191.019531 C 129.054688 193.402344 133.34375 195.179688 137.847656 196.328125 L 140.269531 202.613281 C 140.992188 204.496094 142.800781 205.738281 144.820312 205.738281 L 155.21875 205.738281 C 157.234375 205.738281 159.042969 204.496094 159.769531 202.613281 L 162.1875 196.328125 C 166.699219 195.179688 170.988281 193.402344 174.996094 191.019531 L 181.15625 193.753906 C 183 194.574219 185.15625 194.171875 186.582031 192.746094 L 193.9375 185.394531 C 195.363281 183.96875 195.765625 181.808594 194.945312 179.964844 L 192.207031 173.804688 C 194.589844 169.792969 196.367188 165.507812 197.515625 161 L 203.804688 158.578125 C 205.6875 157.855469 206.929688 156.046875 206.929688 154.027344 L 206.929688 143.628906 C 206.929688 141.609375 205.6875 139.800781 203.804688 139.078125 L 197.519531 136.660156 C 196.371094 132.148438 194.589844 127.859375 192.210938 123.851562 L 194.945312 117.691406 C 195.765625 115.847656 195.363281 113.691406 193.9375 112.265625 L 186.582031 104.910156 C 185.15625 103.484375 183 103.082031 181.15625 103.902344 L 174.992188 106.640625 C 170.984375 104.257812 166.695312 102.480469 162.1875 101.332031 L 159.769531 95.042969 C 159.042969 93.160156 157.234375 91.917969 155.21875 91.917969 L 144.820312 91.917969 C 142.800781 91.917969 140.992188 93.160156 140.269531 95.042969 L 137.847656 101.332031 C 133.339844 102.480469 129.054688 104.257812 125.042969 106.640625 L 118.878906 103.902344 C 117.039062 103.085938 114.878906 103.484375 113.453125 104.910156 L 106.101562 112.265625 C 104.671875 113.691406 104.273438 115.847656 105.089844 117.691406 L 107.828125 123.851562 C 105.445312 127.863281 103.667969 132.152344 102.519531 136.660156 L 96.234375 139.078125 C 94.351562 139.800781 93.109375 141.613281 93.109375 143.628906 L 93.109375 154.03125 C 93.109375 156.046875 94.351562 157.855469 96.234375 158.582031 Z M 102.859375 146.976562 L 108.453125 144.824219 C 110.015625 144.222656 111.164062 142.859375 111.484375 141.214844 C 112.488281 136.105469 114.476562 131.3125 117.390625 126.972656 C 118.324219 125.582031 118.476562 123.808594 117.796875 122.277344 L 115.363281 116.792969 L 117.980469 114.175781 L 123.464844 116.609375 C 124.996094 117.289062 126.769531 117.136719 128.160156 116.203125 C 132.503906 113.289062 137.292969 111.300781 142.402344 110.296875 C 144.046875 109.976562 145.414062 108.828125 146.015625 107.265625 L 148.167969 101.671875 L 151.871094 101.671875 L 154.023438 107.265625 C 154.625 108.828125 155.988281 109.972656 157.632812 110.296875 C 162.742188 111.300781 167.535156 113.289062 171.875 116.203125 C 173.265625 117.136719 175.039062 117.289062 176.570312 116.609375 L 182.054688 114.175781 L 184.675781 116.792969 L 182.242188 122.273438 C 181.558594 123.804688 181.714844 125.578125 182.648438 126.972656 C 185.5625 131.308594 187.550781 136.101562 188.554688 141.214844 C 188.875 142.859375 190.023438 144.222656 191.585938 144.824219 L 197.175781 146.976562 L 197.175781 150.679688 L 191.585938 152.835938 C 190.019531 153.4375 188.875 154.800781 188.550781 156.445312 C 187.546875 161.554688 185.5625 166.34375 182.648438 170.6875 C 181.714844 172.078125 181.558594 173.851562 182.238281 175.382812 L 184.675781 180.867188 L 182.054688 183.484375 L 176.574219 181.050781 C 175.042969 180.371094 173.269531 180.523438 171.878906 181.460938 C 167.539062 184.371094 162.746094 186.359375 157.632812 187.363281 C 155.988281 187.6875 154.625 188.832031 154.023438 190.398438 L 151.871094 195.988281 L 148.167969 195.988281 L 146.015625 190.394531 C 145.414062 188.832031 144.050781 187.683594 142.40625 187.363281 C 137.296875 186.359375 132.503906 184.371094 128.164062 181.457031 C 126.769531 180.523438 124.996094 180.371094 123.464844 181.050781 L 117.984375 183.484375 L 115.363281 180.867188 L 117.796875 175.386719 C 118.480469 173.851562 118.324219 172.078125 117.390625 170.6875 C 114.476562 166.347656 112.488281 161.558594 111.484375 156.445312 C 111.164062 154.796875 110.015625 153.433594 108.453125 152.832031 L 102.859375 150.679688 Z M 102.859375 146.976562 " fill-opacity="1" fill-rule="nonzero"/></g><g fill="#737373" fill-opacity="1"><g transform="translate(367.977642, 158.099073)"><g><path d="M 4.25 0 L 14.808594 0 L 14.808594 -42.484375 L 4.25 -42.484375 Z M 4.25 0 "/></g></g></g><g fill="#737373" fill-opacity="1"><g transform="translate(386.974116, 158.099073)"><g><path d="M 32.226562 0 L 32.167969 -22.152344 C 32.167969 -27.675781 27.980469 -31.316406 22.761719 -31.316406 C 17.964844 -31.316406 15.171875 -29.316406 13.960938 -26.28125 L 13.414062 -26.28125 L 13.414062 -30.769531 L 3.339844 -30.769531 L 3.339844 0 L 13.414062 0 L 13.414062 -22.941406 C 13.414062 -22.941406 15.292969 -24.214844 17.84375 -24.214844 C 20.394531 -24.214844 22.09375 -22.515625 22.09375 -19.96875 L 22.09375 0 Z M 32.226562 0 "/></g></g></g><g fill="#737373" fill-opacity="1"><g transform="translate(421.993186, 158.099073)"><g><path d="M 18.753906 -35.992188 L 23.304688 -35.992188 L 23.304688 -43.335938 L 14.503906 -43.335938 C 9.226562 -43.335938 5.828125 -40.421875 5.828125 -35.324219 L 5.828125 -30.164062 L 0.789062 -30.164062 L 0.789062 -22.820312 L 5.828125 -22.820312 L 5.828125 0 L 15.902344 0 L 15.902344 -22.820312 L 23.183594 -22.820312 L 23.183594 -30.164062 L 15.902344 -30.164062 L 15.902344 -32.835938 C 15.902344 -35.140625 16.691406 -35.992188 18.753906 -35.992188 Z M 18.753906 -35.992188 "/></g></g></g><g fill="#737373" fill-opacity="1"><g transform="translate(446.512599, 158.099073)"><g><path d="M 17.054688 0.546875 C 25.914062 0.546875 31.804688 -6.433594 31.804688 -15.355469 C 31.804688 -24.335938 25.914062 -31.316406 17.054688 -31.316406 C 8.316406 -31.316406 2.425781 -24.335938 2.425781 -15.476562 C 2.425781 -5.460938 8.070312 0.546875 17.054688 0.546875 Z M 17.054688 -6.738281 C 14.324219 -6.738281 12.503906 -9.832031 12.503906 -15.597656 C 12.503906 -20.027344 14.324219 -24.15625 17.054688 -24.15625 C 19.847656 -24.15625 21.667969 -20.089844 21.667969 -15.539062 C 21.667969 -10.863281 19.847656 -6.738281 17.054688 -6.738281 Z M 17.054688 -6.738281 "/></g></g></g><g fill="#737373" fill-opacity="1"><g transform="translate(480.681979, 158.099073)"><g><path d="M 22.273438 -31.316406 C 18.816406 -31.316406 15.476562 -29.316406 13.960938 -26.28125 L 13.414062 -26.28125 L 13.414062 -30.832031 L 3.339844 -30.832031 L 3.339844 0 L 13.414062 0 L 13.414062 -22.882812 C 13.414062 -22.882812 14.871094 -24.214844 16.871094 -24.214844 C 18.695312 -24.214844 19.90625 -22.820312 19.96875 -20.695312 L 19.96875 -17.90625 L 29.980469 -17.90625 L 29.980469 -22.515625 C 29.921875 -27.796875 26.886719 -31.316406 22.273438 -31.316406 Z M 22.273438 -31.316406 "/></g></g></g><g fill="#737373" fill-opacity="1"><g transform="translate(512.059552, 158.099073)"><g><path d="M 40.421875 -31.316406 C 36.234375 -31.316406 32.835938 -29.191406 31.558594 -26.160156 L 30.953125 -26.160156 C 30.226562 -29.191406 26.765625 -31.316406 22.515625 -31.316406 C 18.449219 -31.316406 15.234375 -29.316406 13.960938 -26.339844 L 13.414062 -26.339844 L 13.414062 -30.832031 L 3.339844 -30.832031 L 3.339844 0 L 13.414062 0 L 13.414062 -22.882812 C 13.414062 -22.882812 15.113281 -24.214844 17.480469 -24.214844 C 19.847656 -24.214844 21.484375 -22.578125 21.484375 -20.089844 L 21.484375 0 L 31.558594 0 L 31.5 -22.882812 C 31.5 -22.882812 33.199219 -24.214844 35.625 -24.214844 C 37.933594 -24.214844 39.570312 -22.578125 39.570312 -20.089844 L 39.570312 0 L 49.648438 0 L 49.648438 -22.214844 C 49.648438 -27.675781 45.882812 -31.316406 40.421875 -31.316406 Z M 40.421875 -31.316406 "/></g></g></g><g fill="#737373" fill-opacity="1"><g transform="translate(564.557805, 158.099073)"><g><path d="M 33.136719 -7.34375 L 32.226562 -7.34375 C 31.683594 -7.34375 31.316406 -7.769531 31.316406 -8.496094 L 31.316406 -17.238281 C 31.316406 -25.734375 25.550781 -31.316406 16.8125 -31.316406 C 8.496094 -31.316406 2.550781 -26.460938 2.550781 -20.027344 L 11.957031 -20.027344 C 11.957031 -21.910156 13.714844 -23.972656 16.8125 -23.972656 C 19.847656 -23.972656 21.910156 -22.273438 21.910156 -19.726562 C 21.910156 -19.058594 20.816406 -18.449219 19.058594 -18.085938 C 18.148438 -17.90625 16.992188 -17.78125 10.683594 -17.175781 C 5.523438 -16.570312 2.367188 -13.292969 2.367188 -8.800781 C 2.367188 -3.277344 6.25 0.425781 12.136719 0.425781 C 17.054688 0.425781 21.605469 -2.792969 23.425781 -7.648438 L 23.851562 -7.648438 L 23.730469 -6.617188 C 23.183594 -2.671875 25.550781 0 29.738281 0 L 33.136719 0 Z M 15.660156 -6.738281 C 13.414062 -6.738281 11.957031 -7.949219 11.957031 -9.832031 C 11.957031 -13.839844 19.480469 -12.382812 21.726562 -14.566406 L 21.910156 -14.566406 L 21.910156 -11.957031 C 21.546875 -8.800781 19.058594 -6.738281 15.660156 -6.738281 Z M 15.660156 -6.738281 "/></g></g></g><g fill="#737373" fill-opacity="1"><g transform="translate(598.727186, 158.099073)"><g><path d="M 15.839844 -23.246094 L 23.125 -23.246094 L 23.125 -30.589844 L 15.839844 -30.589844 L 15.839844 -38.601562 L 5.765625 -38.601562 L 5.765625 -30.589844 L 0.667969 -30.589844 L 0.667969 -23.246094 L 5.765625 -23.246094 L 5.765625 -10.074219 C 5.765625 -4.003906 10.074219 0 16.628906 0 L 23.246094 0 L 23.246094 -7.34375 L 18.695312 -7.34375 C 16.992188 -7.34375 15.839844 -8.617188 15.839844 -10.5625 Z M 15.839844 -23.246094 "/></g></g></g><g fill="#737373" fill-opacity="1"><g transform="translate(623.489364, 158.099073)"><g><path d="M 8.132812 -33.746094 C 11.105469 -33.746094 13.472656 -36.113281 13.472656 -39.148438 C 13.472656 -42.121094 11.105469 -44.488281 8.132812 -44.488281 C 5.097656 -44.488281 2.730469 -42.121094 2.730469 -39.148438 C 2.730469 -36.113281 5.097656 -33.746094 8.132812 -33.746094 Z M 13.414062 0 L 13.414062 -30.832031 L 3.339844 -30.832031 L 3.339844 0 Z M 13.414062 0 "/></g></g></g><g fill="#737373" fill-opacity="1"><g transform="translate(640.179562, 158.099073)"><g><path d="M 17.054688 0.546875 C 25.914062 0.546875 31.804688 -6.433594 31.804688 -15.355469 C 31.804688 -24.335938 25.914062 -31.316406 17.054688 -31.316406 C 8.316406 -31.316406 2.425781 -24.335938 2.425781 -15.476562 C 2.425781 -5.460938 8.070312 0.546875 17.054688 0.546875 Z M 17.054688 -6.738281 C 14.324219 -6.738281 12.503906 -9.832031 12.503906 -15.597656 C 12.503906 -20.027344 14.324219 -24.15625 17.054688 -24.15625 C 19.847656 -24.15625 21.667969 -20.089844 21.667969 -15.539062 C 21.667969 -10.863281 19.847656 -6.738281 17.054688 -6.738281 Z M 17.054688 -6.738281 "/></g></g></g><g fill="#737373" fill-opacity="1"><g transform="translate(674.348943, 158.099073)"><g><path d="M 32.226562 0 L 32.167969 -22.152344 C 32.167969 -27.675781 27.980469 -31.316406 22.761719 -31.316406 C 17.964844 -31.316406 15.171875 -29.316406 13.960938 -26.28125 L 13.414062 -26.28125 L 13.414062 -30.769531 L 3.339844 -30.769531 L 3.339844 0 L 13.414062 0 L 13.414062 -22.941406 C 13.414062 -22.941406 15.292969 -24.214844 17.84375 -24.214844 C 20.394531 -24.214844 22.09375 -22.515625 22.09375 -19.96875 L 22.09375 0 Z M 32.226562 0 "/></g></g></g><g fill="#737373" fill-opacity="1"><g transform="translate(376.89397, 242.960798)"><g><path d="M 33.746094 -42.847656 L 0.851562 -42.847656 L 0.851562 -34.835938 L 12.015625 -34.835938 L 12.015625 0 L 22.578125 0 L 22.578125 -34.835938 L 33.746094 -34.835938 Z M 33.746094 -42.847656 "/></g></g></g><g fill="#737373" fill-opacity="1"><g transform="translate(411.548882, 242.960798)"><g><path d="M 30.648438 -9.164062 C 26.886719 -7.890625 22.515625 -7.40625 19.300781 -7.648438 C 14.929688 -7.890625 12.136719 -9.894531 11.835938 -13.535156 L 11.835938 -13.960938 L 31.558594 -13.960938 L 31.558594 -15.234375 C 31.136719 -26.28125 27.128906 -31.316406 16.992188 -31.316406 C 8.253906 -31.316406 2.425781 -25.066406 2.425781 -15.414062 C 2.425781 -3.15625 10.683594 0.546875 18.695312 0.546875 C 23.730469 0.484375 28.828125 -0.972656 30.769531 -2.246094 Z M 11.894531 -17.78125 C 12.078125 -21.425781 14.261719 -23.792969 17.238281 -23.792969 C 20.332031 -23.792969 22.214844 -21.605469 22.214844 -17.84375 Z M 11.894531 -17.78125 "/></g></g></g><g fill="#737373" fill-opacity="1"><g transform="translate(445.536194, 242.960798)"><g><path d="M 17.238281 0.546875 C 25.855469 0.546875 31.558594 -4.855469 31.558594 -12.925781 L 21.484375 -12.925781 C 21.484375 -9.164062 19.785156 -6.738281 17.238281 -6.738281 C 14.382812 -6.738281 12.503906 -10.316406 12.503906 -15.660156 C 12.503906 -20.757812 14.324219 -24.15625 17.054688 -24.15625 C 19.664062 -24.15625 21.484375 -21.667969 21.484375 -17.964844 L 31.558594 -17.964844 C 31.558594 -25.976562 25.855469 -31.316406 17.238281 -31.316406 C 8.375 -31.316406 2.425781 -24.761719 2.425781 -14.992188 C 2.425781 -5.707031 8.375 0.546875 17.238281 0.546875 Z M 17.238281 0.546875 "/></g></g></g><g fill="#737373" fill-opacity="1"><g transform="translate(479.341425, 242.960798)"><g><path d="M 32.226562 0 L 32.167969 -22.03125 C 32.167969 -27.554688 28.648438 -31.257812 23.425781 -31.257812 C 19.117188 -31.257812 15.171875 -29.070312 13.898438 -26.039062 L 13.351562 -26.039062 L 13.414062 -43.699219 L 3.339844 -43.699219 L 3.339844 0 L 13.414062 0 L 13.414062 -22.820312 C 13.414062 -22.820312 15.171875 -24.15625 17.84375 -24.15625 C 20.394531 -24.15625 22.09375 -22.457031 22.09375 -19.90625 L 22.09375 0 Z M 32.226562 0 "/></g></g></g><g fill="#737373" fill-opacity="1"><g transform="translate(514.360496, 242.960798)"><g><path d="M 32.226562 0 L 32.167969 -22.152344 C 32.167969 -27.675781 27.980469 -31.316406 22.761719 -31.316406 C 17.964844 -31.316406 15.171875 -29.316406 13.960938 -26.28125 L 13.414062 -26.28125 L 13.414062 -30.769531 L 3.339844 -30.769531 L 3.339844 0 L 13.414062 0 L 13.414062 -22.941406 C 13.414062 -22.941406 15.292969 -24.214844 17.84375 -24.214844 C 20.394531 -24.214844 22.09375 -22.515625 22.09375 -19.96875 L 22.09375 0 Z M 32.226562 0 "/></g></g></g><g fill="#737373" fill-opacity="1"><g transform="translate(549.379566, 242.960798)"><g><path d="M 17.054688 0.546875 C 25.914062 0.546875 31.804688 -6.433594 31.804688 -15.355469 C 31.804688 -24.335938 25.914062 -31.316406 17.054688 -31.316406 C 8.316406 -31.316406 2.425781 -24.335938 2.425781 -15.476562 C 2.425781 -5.460938 8.070312 0.546875 17.054688 0.546875 Z M 17.054688 -6.738281 C 14.324219 -6.738281 12.503906 -9.832031 12.503906 -15.597656 C 12.503906 -20.027344 14.324219 -24.15625 17.054688 -24.15625 C 19.847656 -24.15625 21.667969 -20.089844 21.667969 -15.539062 C 21.667969 -10.863281 19.847656 -6.738281 17.054688 -6.738281 Z M 17.054688 -6.738281 "/></g></g></g><g fill="#737373" fill-opacity="1"><g transform="translate(583.548947, 242.960798)"><g><path d="M 3.339844 0 L 13.414062 0 L 13.414062 -43.699219 L 3.339844 -43.699219 Z M 3.339844 0 "/></g></g></g><g fill="#737373" fill-opacity="1"><g transform="translate(600.239145, 242.960798)"><g><path d="M 17.054688 0.546875 C 25.914062 0.546875 31.804688 -6.433594 31.804688 -15.355469 C 31.804688 -24.335938 25.914062 -31.316406 17.054688 -31.316406 C 8.316406 -31.316406 2.425781 -24.335938 2.425781 -15.476562 C 2.425781 -5.460938 8.070312 0.546875 17.054688 0.546875 Z M 17.054688 -6.738281 C 14.324219 -6.738281 12.503906 -9.832031 12.503906 -15.597656 C 12.503906 -20.027344 14.324219 -24.15625 17.054688 -24.15625 C 19.847656 -24.15625 21.667969 -20.089844 21.667969 -15.539062 C 21.667969 -10.863281 19.847656 -6.738281 17.054688 -6.738281 Z M 17.054688 -6.738281 "/></g></g></g><g fill="#737373" fill-opacity="1"><g transform="translate(634.408525, 242.960798)"><g><path d="M 21.667969 -30.648438 L 21.667969 -25.429688 L 21.242188 -25.429688 C 20.269531 -28.585938 17.359375 -31.316406 13.171875 -31.316406 C 6.738281 -31.316406 2.425781 -25.1875 2.425781 -15.902344 C 2.425781 -7.222656 7.222656 -1.394531 14.324219 -1.394531 C 18.816406 -1.394531 21.363281 -3.882812 21.847656 -6.738281 L 22.273438 -6.738281 L 22.214844 -4.371094 C 21.972656 1.214844 19.238281 3.09375 15.292969 3.339844 C 12.136719 3.582031 8.253906 2.488281 5.21875 1.761719 L 5.097656 9.589844 C 8.375 10.863281 12.503906 12.015625 16.203125 11.894531 C 26.039062 11.714844 31.742188 4.308594 31.742188 -7.40625 L 31.742188 -30.648438 Z M 21.667969 -13.050781 C 21.667969 -10.5625 20.089844 -8.496094 17.296875 -8.496094 C 14.445312 -8.496094 12.503906 -11.835938 12.441406 -16.144531 C 12.441406 -21.183594 14.382812 -24.214844 17.296875 -24.214844 C 20.269531 -24.214844 21.667969 -22.578125 21.667969 -22.578125 Z M 21.667969 -13.050781 "/></g></g></g><g fill="#737373" fill-opacity="1"><g transform="translate(669.488283, 242.960798)"><g><path d="M 30.769531 -30.648438 L 20.394531 -30.648438 L 15.839844 -7.769531 L 15.113281 -7.769531 L 10.621094 -30.648438 L 0.304688 -30.648438 L 8.132812 -1.09375 L 13.050781 -1.152344 L 12.5625 0.605469 C 10.984375 3.214844 3.703125 2.246094 2.425781 1.820312 L 2.425781 9.105469 C 3.761719 9.710938 18.148438 13.171875 21.484375 3.214844 Z M 30.769531 -30.648438 "/></g></g></g></svg>