<svg xmlns="http://www.w3.org/2000/svg" xmlns:xlink="http://www.w3.org/1999/xlink" width="1000" zoomAndPan="magnify" viewBox="0 0 750 374.999991" height="500" preserveAspectRatio="xMidYMid meet" version="1.0"><defs><g/><clipPath id="4b5cc6549c"><path d="M 61.578125 176 L 214 176 L 214 328.171875 L 61.578125 328.171875 Z M 61.578125 176 " clip-rule="nonzero"/></clipPath><clipPath id="f958812d27"><path d="M 155 46.921875 L 284 46.921875 L 284 176 L 155 176 Z M 155 46.921875 " clip-rule="nonzero"/></clipPath></defs><rect x="-75" width="900" fill="#ffffff" y="-37.499999" height="449.999989" fill-opacity="1"/><rect x="-75" width="900" fill="#ffffff" y="-37.499999" height="449.999989" fill-opacity="1"/><g clip-path="url(#4b5cc6549c)"><path fill="#737373" d="M 151.007812 194.789062 C 157.304688 196.265625 163.210938 198.75 168.550781 202.0625 L 177.234375 193.378906 C 179.609375 191.003906 183.496094 191.003906 185.871094 193.378906 L 196.382812 203.890625 C 198.761719 206.265625 198.761719 210.15625 196.382812 212.53125 L 187.703125 221.210938 C 191.015625 226.550781 193.5 232.460938 194.976562 238.757812 L 207.25 238.757812 C 210.609375 238.757812 213.355469 241.503906 213.355469 244.867188 L 213.355469 259.730469 C 213.355469 263.089844 210.609375 265.839844 207.25 265.839844 L 194.976562 265.839844 C 193.5 272.136719 191.015625 278.042969 187.703125 283.382812 L 196.386719 292.066406 C 198.761719 294.441406 198.761719 298.328125 196.386719 300.707031 L 185.875 311.21875 C 183.496094 313.59375 179.609375 313.59375 177.234375 311.21875 L 168.554688 302.535156 C 163.210938 305.847656 157.304688 308.332031 151.007812 309.8125 L 151.007812 322.082031 C 151.007812 325.441406 148.257812 328.1875 144.898438 328.1875 L 130.035156 328.1875 C 126.671875 328.1875 123.925781 325.441406 123.925781 322.082031 L 123.925781 309.808594 C 117.628906 308.332031 111.722656 305.847656 106.378906 302.535156 L 97.699219 311.21875 C 95.320312 313.59375 91.433594 313.59375 89.058594 311.21875 L 78.546875 300.707031 C 76.171875 298.328125 76.171875 294.441406 78.546875 292.066406 L 87.226562 283.386719 C 83.914062 278.046875 81.429688 272.136719 79.953125 265.839844 L 67.683594 265.839844 C 64.324219 265.839844 61.574219 263.089844 61.574219 259.730469 L 61.574219 244.867188 C 61.574219 241.507812 64.324219 238.757812 67.683594 238.757812 L 79.957031 238.757812 C 81.433594 232.460938 83.917969 226.554688 87.230469 221.214844 L 78.546875 212.53125 C 76.171875 210.15625 76.171875 206.265625 78.546875 203.890625 L 89.058594 193.378906 C 91.433594 191.003906 95.320312 191.003906 97.699219 193.378906 L 106.378906 202.0625 C 111.722656 198.75 117.628906 196.265625 123.925781 194.789062 L 123.925781 182.515625 C 123.925781 179.15625 126.671875 176.40625 130.03125 176.40625 L 144.898438 176.40625 C 148.257812 176.40625 151.007812 179.15625 151.007812 182.515625 Z M 137.464844 220.4375 C 155.0625 220.4375 169.328125 234.703125 169.328125 252.296875 C 169.328125 269.894531 155.0625 284.160156 137.464844 284.160156 C 119.867188 284.160156 105.601562 269.894531 105.601562 252.296875 C 105.601562 234.703125 119.867188 220.4375 137.464844 220.4375 Z M 137.464844 220.4375 " fill-opacity="1" fill-rule="evenodd"/></g><g clip-path="url(#f958812d27)"><path fill="#737373" d="M 262.15625 84.894531 C 265.039062 89.546875 267.085938 94.570312 268.300781 99.746094 L 278.691406 99.746094 C 281.535156 99.746094 283.859375 102.070312 283.859375 104.914062 L 283.859375 117.492188 C 283.859375 120.335938 281.535156 122.660156 278.691406 122.660156 L 268.304688 122.660156 C 267.089844 127.839844 265.042969 132.859375 262.15625 137.511719 L 269.5 144.851562 C 271.507812 146.863281 271.507812 150.152344 269.5 152.160156 L 260.605469 161.054688 C 258.59375 163.066406 255.304688 163.066406 253.296875 161.054688 L 245.953125 153.714844 C 241.304688 156.597656 236.28125 158.644531 231.105469 159.859375 L 231.105469 170.25 C 231.105469 173.089844 228.777344 175.417969 225.9375 175.417969 L 213.359375 175.417969 C 210.515625 175.417969 208.1875 173.089844 208.1875 170.25 L 208.1875 159.859375 C 203.011719 158.648438 197.988281 156.597656 193.339844 153.714844 L 185.996094 161.054688 C 183.988281 163.066406 180.699219 163.066406 178.6875 161.054688 L 169.792969 152.164062 C 167.785156 150.152344 167.785156 146.863281 169.792969 144.851562 L 177.136719 137.511719 C 174.253906 132.859375 172.207031 127.839844 170.992188 122.660156 L 160.601562 122.660156 C 157.757812 122.660156 155.433594 120.335938 155.433594 117.492188 L 155.433594 104.914062 C 155.433594 102.070312 157.757812 99.746094 160.601562 99.746094 L 170.988281 99.746094 C 172.203125 94.570312 174.25 89.546875 177.136719 84.894531 L 169.792969 77.554688 C 167.785156 75.542969 167.785156 72.253906 169.792969 70.246094 L 178.6875 61.351562 C 180.699219 59.339844 183.988281 59.339844 185.996094 61.351562 L 193.339844 68.695312 C 197.992188 65.808594 203.011719 63.761719 208.1875 62.550781 L 208.1875 52.160156 C 208.1875 49.316406 210.515625 46.992188 213.355469 46.992188 L 225.9375 46.992188 C 228.777344 46.992188 231.105469 49.316406 231.105469 52.160156 L 231.105469 62.546875 C 236.28125 63.761719 241.304688 65.808594 245.953125 68.691406 L 253.296875 61.351562 C 255.304688 59.339844 258.59375 59.339844 260.605469 61.351562 L 269.5 70.246094 C 271.507812 72.253906 271.507812 75.542969 269.5 77.554688 Z M 234.859375 95.988281 C 243.261719 104.390625 243.261719 118.015625 234.859375 126.417969 C 226.457031 134.820312 212.835938 134.820312 204.433594 126.417969 C 196.03125 118.015625 196.03125 104.390625 204.433594 95.988281 C 212.835938 87.585938 226.457031 87.585938 234.859375 95.988281 Z M 234.859375 95.988281 " fill-opacity="1" fill-rule="evenodd"/></g><path fill="#737373" d="M 280.019531 189.523438 C 283.050781 191.148438 285.742188 193.238281 288.03125 195.675781 L 293.6875 192.410156 C 295.238281 191.515625 297.234375 192.050781 298.128906 193.597656 L 302.082031 200.449219 C 302.976562 201.996094 302.441406 203.992188 300.890625 204.886719 L 295.238281 208.152344 C 296.203125 211.351562 296.667969 214.730469 296.558594 218.171875 L 302.863281 219.859375 C 304.589844 220.320312 305.625 222.113281 305.160156 223.839844 L 303.113281 231.476562 C 302.652344 233.203125 300.859375 234.238281 299.136719 233.777344 L 292.828125 232.085938 C 291.203125 235.117188 289.113281 237.8125 286.675781 240.101562 L 289.941406 245.757812 C 290.835938 247.304688 290.300781 249.300781 288.753906 250.195312 L 281.902344 254.148438 C 280.355469 255.042969 278.359375 254.507812 277.464844 252.960938 L 274.199219 247.304688 C 271 248.273438 267.621094 248.734375 264.179688 248.625 L 262.492188 254.933594 C 262.027344 256.65625 260.238281 257.691406 258.511719 257.230469 L 250.875 255.183594 C 249.148438 254.71875 248.113281 252.929688 248.574219 251.203125 L 250.265625 244.898438 C 247.234375 243.273438 244.539062 241.179688 242.25 238.742188 L 236.59375 242.007812 C 235.046875 242.902344 233.050781 242.367188 232.15625 240.820312 L 228.203125 233.972656 C 227.308594 232.421875 227.84375 230.425781 229.390625 229.53125 L 235.046875 226.265625 C 234.078125 223.066406 233.617188 219.6875 233.722656 216.25 L 227.417969 214.558594 C 225.691406 214.097656 224.660156 212.304688 225.121094 210.582031 L 227.167969 202.941406 C 227.632812 201.214844 229.421875 200.179688 231.148438 200.644531 L 237.453125 202.332031 C 239.082031 199.300781 241.171875 196.609375 243.609375 194.320312 L 240.339844 188.664062 C 239.449219 187.113281 239.984375 185.117188 241.53125 184.222656 L 248.378906 180.269531 C 249.925781 179.375 251.925781 179.910156 252.820312 181.457031 L 256.085938 187.117188 C 259.285156 186.148438 262.664062 185.683594 266.101562 185.792969 L 267.792969 179.488281 C 268.253906 177.761719 270.042969 176.726562 271.769531 177.191406 L 279.410156 179.238281 C 281.136719 179.699219 282.171875 181.488281 281.707031 183.214844 Z M 268.644531 204.144531 C 275.859375 206.078125 280.140625 213.496094 278.207031 220.710938 C 276.273438 227.925781 268.855469 232.210938 261.640625 230.277344 C 254.425781 228.34375 250.140625 220.925781 252.074219 213.707031 C 254.007812 206.492188 261.425781 202.210938 268.644531 204.144531 Z M 268.644531 204.144531 " fill-opacity="1" fill-rule="evenodd"/><g fill="#737373" fill-opacity="1"><g transform="translate(328.362198, 199.03456)"><g><path d="M 3.761719 0 L 12.679688 0 L 12.625 -25.199219 L 13.164062 -25.199219 L 19.019531 0 L 25.304688 0 L 31.214844 -25.199219 L 31.699219 -25.199219 L 31.644531 0 L 40.5625 0 L 40.5625 -37.929688 L 29.710938 -37.984375 L 22.457031 -10.316406 L 21.921875 -10.316406 L 14.667969 -37.929688 L 3.761719 -37.878906 Z M 3.761719 0 "/></g></g></g><g fill="#737373" fill-opacity="1"><g transform="translate(372.632769, 199.03456)"><g><path d="M 29.335938 -6.5 L 28.53125 -6.5 C 28.046875 -6.5 27.722656 -6.878906 27.722656 -7.523438 L 27.722656 -15.257812 C 27.722656 -22.78125 22.621094 -27.722656 14.882812 -27.722656 C 7.523438 -27.722656 2.257812 -23.425781 2.257812 -17.730469 L 10.585938 -17.730469 C 10.585938 -19.394531 12.140625 -21.222656 14.882812 -21.222656 C 17.570312 -21.222656 19.394531 -19.71875 19.394531 -17.460938 C 19.394531 -16.871094 18.429688 -16.332031 16.871094 -16.011719 C 16.066406 -15.851562 15.042969 -15.742188 9.457031 -15.203125 C 4.890625 -14.667969 2.09375 -11.765625 2.09375 -7.789062 C 2.09375 -2.902344 5.535156 0.375 10.746094 0.375 C 15.097656 0.375 19.128906 -2.472656 20.738281 -6.769531 L 21.113281 -6.769531 L 21.007812 -5.855469 C 20.523438 -2.363281 22.621094 0 26.328125 0 L 29.335938 0 Z M 13.863281 -5.964844 C 11.875 -5.964844 10.585938 -7.039062 10.585938 -8.703125 C 10.585938 -12.25 17.246094 -10.960938 19.234375 -12.894531 L 19.394531 -12.894531 L 19.394531 -10.585938 C 19.074219 -7.789062 16.871094 -5.964844 13.863281 -5.964844 Z M 13.863281 -5.964844 "/></g></g></g><g fill="#737373" fill-opacity="1"><g transform="translate(402.880741, 199.03456)"><g><path d="M 28.53125 0 L 28.476562 -19.609375 C 28.476562 -24.5 24.769531 -27.722656 20.148438 -27.722656 C 15.902344 -27.722656 13.433594 -25.949219 12.355469 -23.265625 L 11.875 -23.265625 L 11.875 -27.238281 L 2.953125 -27.238281 L 2.953125 0 L 11.875 0 L 11.875 -20.308594 C 11.875 -20.308594 13.539062 -21.4375 15.796875 -21.4375 C 18.050781 -21.4375 19.558594 -19.933594 19.558594 -17.675781 L 19.558594 0 Z M 28.53125 0 "/></g></g></g><g fill="#737373" fill-opacity="1"><g transform="translate(433.88089, 199.03456)"><g><path d="M 19.289062 -7.789062 C 19.289062 -7.789062 18.214844 -6.609375 15.257812 -6.609375 C 13.269531 -6.609375 11.605469 -8.003906 11.605469 -10.371094 L 11.605469 -27.1875 L 2.632812 -27.1875 L 2.632812 -7.628906 C 2.632812 -2.902344 6.664062 0.539062 11.496094 0.539062 C 18.644531 0.539062 20.363281 -4.40625 21.222656 -6.769531 L 21.707031 -6.769531 L 21.597656 -5.800781 C 21.167969 -2.6875 22.835938 0 26.757812 0 L 30.140625 0 L 30.140625 -6.5 L 28.90625 -6.5 C 28.582031 -6.5 28.207031 -6.824219 28.207031 -7.414062 L 28.207031 -27.1875 L 19.289062 -27.1875 Z M 19.289062 -7.789062 "/></g></g></g><g fill="#737373" fill-opacity="1"><g transform="translate(466.654011, 199.03456)"><g><path d="M 16.601562 -31.859375 L 20.632812 -31.859375 L 20.632812 -38.363281 L 12.839844 -38.363281 C 8.167969 -38.363281 5.15625 -35.78125 5.15625 -31.269531 L 5.15625 -26.703125 L 0.699219 -26.703125 L 0.699219 -20.203125 L 5.15625 -20.203125 L 5.15625 0 L 14.078125 0 L 14.078125 -20.203125 L 20.523438 -20.203125 L 20.523438 -26.703125 L 14.078125 -26.703125 L 14.078125 -29.066406 C 14.078125 -31.109375 14.773438 -31.859375 16.601562 -31.859375 Z M 16.601562 -31.859375 "/></g></g></g><g fill="#737373" fill-opacity="1"><g transform="translate(488.359482, 199.03456)"><g><path d="M 29.335938 -6.5 L 28.53125 -6.5 C 28.046875 -6.5 27.722656 -6.878906 27.722656 -7.523438 L 27.722656 -15.257812 C 27.722656 -22.78125 22.621094 -27.722656 14.882812 -27.722656 C 7.523438 -27.722656 2.257812 -23.425781 2.257812 -17.730469 L 10.585938 -17.730469 C 10.585938 -19.394531 12.140625 -21.222656 14.882812 -21.222656 C 17.570312 -21.222656 19.394531 -19.71875 19.394531 -17.460938 C 19.394531 -16.871094 18.429688 -16.332031 16.871094 -16.011719 C 16.066406 -15.851562 15.042969 -15.742188 9.457031 -15.203125 C 4.890625 -14.667969 2.09375 -11.765625 2.09375 -7.789062 C 2.09375 -2.902344 5.535156 0.375 10.746094 0.375 C 15.097656 0.375 19.128906 -2.472656 20.738281 -6.769531 L 21.113281 -6.769531 L 21.007812 -5.855469 C 20.523438 -2.363281 22.621094 0 26.328125 0 L 29.335938 0 Z M 13.863281 -5.964844 C 11.875 -5.964844 10.585938 -7.039062 10.585938 -8.703125 C 10.585938 -12.25 17.246094 -10.960938 19.234375 -12.894531 L 19.394531 -12.894531 L 19.394531 -10.585938 C 19.074219 -7.789062 16.871094 -5.964844 13.863281 -5.964844 Z M 13.863281 -5.964844 "/></g></g></g><g fill="#737373" fill-opacity="1"><g transform="translate(518.607455, 199.03456)"><g><path d="M 15.257812 0.484375 C 22.886719 0.484375 27.9375 -4.296875 27.9375 -11.445312 L 19.019531 -11.445312 C 19.019531 -8.113281 17.515625 -5.964844 15.257812 -5.964844 C 12.734375 -5.964844 11.066406 -9.132812 11.066406 -13.863281 C 11.066406 -18.375 12.679688 -21.382812 15.097656 -21.382812 C 17.40625 -21.382812 19.019531 -19.179688 19.019531 -15.902344 L 27.9375 -15.902344 C 27.9375 -22.996094 22.886719 -27.722656 15.257812 -27.722656 C 7.414062 -27.722656 2.148438 -21.921875 2.148438 -13.269531 C 2.148438 -5.050781 7.414062 0.484375 15.257812 0.484375 Z M 15.257812 0.484375 "/></g></g></g><g fill="#737373" fill-opacity="1"><g transform="translate(548.53306, 199.03456)"><g><path d="M 14.023438 -20.578125 L 20.46875 -20.578125 L 20.46875 -27.078125 L 14.023438 -27.078125 L 14.023438 -34.171875 L 5.105469 -34.171875 L 5.105469 -27.078125 L 0.589844 -27.078125 L 0.589844 -20.578125 L 5.105469 -20.578125 L 5.105469 -8.917969 C 5.105469 -3.546875 8.917969 0 14.722656 0 L 20.578125 0 L 20.578125 -6.5 L 16.546875 -6.5 C 15.042969 -6.5 14.023438 -7.628906 14.023438 -9.347656 Z M 14.023438 -20.578125 "/></g></g></g><g fill="#737373" fill-opacity="1"><g transform="translate(570.453437, 199.03456)"><g><path d="M 19.289062 -7.789062 C 19.289062 -7.789062 18.214844 -6.609375 15.257812 -6.609375 C 13.269531 -6.609375 11.605469 -8.003906 11.605469 -10.371094 L 11.605469 -27.1875 L 2.632812 -27.1875 L 2.632812 -7.628906 C 2.632812 -2.902344 6.664062 0.539062 11.496094 0.539062 C 18.644531 0.539062 20.363281 -4.40625 21.222656 -6.769531 L 21.707031 -6.769531 L 21.597656 -5.800781 C 21.167969 -2.6875 22.835938 0 26.757812 0 L 30.140625 0 L 30.140625 -6.5 L 28.90625 -6.5 C 28.582031 -6.5 28.207031 -6.824219 28.207031 -7.414062 L 28.207031 -27.1875 L 19.289062 -27.1875 Z M 19.289062 -7.789062 "/></g></g></g><g fill="#737373" fill-opacity="1"><g transform="translate(603.226549, 199.03456)"><g><path d="M 19.71875 -27.722656 C 16.65625 -27.722656 13.699219 -25.949219 12.355469 -23.265625 L 11.875 -23.265625 L 11.875 -27.292969 L 2.953125 -27.292969 L 2.953125 0 L 11.875 0 L 11.875 -20.253906 C 11.875 -20.253906 13.164062 -21.4375 14.9375 -21.4375 C 16.546875 -21.4375 17.621094 -20.203125 17.675781 -18.320312 L 17.675781 -15.851562 L 26.542969 -15.851562 L 26.542969 -19.933594 C 26.488281 -24.605469 23.800781 -27.722656 19.71875 -27.722656 Z M 19.71875 -27.722656 "/></g></g></g><g fill="#737373" fill-opacity="1"><g transform="translate(631.003121, 199.03456)"><g><path d="M 7.199219 -29.871094 C 9.832031 -29.871094 11.925781 -31.96875 11.925781 -34.652344 C 11.925781 -37.285156 9.832031 -39.382812 7.199219 -39.382812 C 4.511719 -39.382812 2.417969 -37.285156 2.417969 -34.652344 C 2.417969 -31.96875 4.511719 -29.871094 7.199219 -29.871094 Z M 11.875 0 L 11.875 -27.292969 L 2.953125 -27.292969 L 2.953125 0 Z M 11.875 0 "/></g></g></g><g fill="#737373" fill-opacity="1"><g transform="translate(645.777907, 199.03456)"><g><path d="M 28.53125 0 L 28.476562 -19.609375 C 28.476562 -24.5 24.769531 -27.722656 20.148438 -27.722656 C 15.902344 -27.722656 13.433594 -25.949219 12.355469 -23.265625 L 11.875 -23.265625 L 11.875 -27.238281 L 2.953125 -27.238281 L 2.953125 0 L 11.875 0 L 11.875 -20.308594 C 11.875 -20.308594 13.539062 -21.4375 15.796875 -21.4375 C 18.050781 -21.4375 19.558594 -19.933594 19.558594 -17.675781 L 19.558594 0 Z M 28.53125 0 "/></g></g></g><g fill="#737373" fill-opacity="1"><g transform="translate(676.778038, 199.03456)"><g><path d="M 19.179688 -27.132812 L 19.179688 -22.511719 L 18.804688 -22.511719 C 17.945312 -25.304688 15.367188 -27.722656 11.660156 -27.722656 C 5.964844 -27.722656 2.148438 -22.296875 2.148438 -14.078125 C 2.148438 -6.394531 6.394531 -1.234375 12.679688 -1.234375 C 16.65625 -1.234375 18.910156 -3.4375 19.34375 -5.964844 L 19.71875 -5.964844 L 19.664062 -3.867188 C 19.449219 1.074219 17.03125 2.738281 13.539062 2.953125 C 10.746094 3.171875 7.308594 2.203125 4.621094 1.558594 L 4.511719 8.488281 C 7.414062 9.617188 11.066406 10.636719 14.34375 10.53125 C 23.050781 10.371094 28.097656 3.816406 28.097656 -6.554688 L 28.097656 -27.132812 Z M 19.179688 -11.550781 C 19.179688 -9.347656 17.785156 -7.523438 15.3125 -7.523438 C 12.789062 -7.523438 11.066406 -10.476562 11.015625 -14.292969 C 11.015625 -18.75 12.734375 -21.4375 15.3125 -21.4375 C 17.945312 -21.4375 19.179688 -19.988281 19.179688 -19.988281 Z M 19.179688 -11.550781 "/></g></g></g></svg>