<svg xmlns="http://www.w3.org/2000/svg" xmlns:xlink="http://www.w3.org/1999/xlink" width="1000" zoomAndPan="magnify" viewBox="0 0 750 374.999991" height="500" preserveAspectRatio="xMidYMid meet" version="1.0"><defs><g/><clipPath id="08f6e8040f"><path d="M 92.683594 143 L 296 143 L 296 337.5 L 92.683594 337.5 Z M 92.683594 143 " clip-rule="nonzero"/></clipPath><clipPath id="4fb6f2262b"><path d="M 247 37.5 L 392.683594 37.5 L 392.683594 183 L 247 183 Z M 247 37.5 " clip-rule="nonzero"/></clipPath></defs><rect x="-75" width="900" fill="#ffffff" y="-37.499999" height="449.999989" fill-opacity="1"/><rect x="-75" width="900" fill="#ffffff" y="-37.499999" height="449.999989" fill-opacity="1"/><g clip-path="url(#08f6e8040f)"><path fill="#737373" d="M 136.558594 236.734375 L 136.5625 236.734375 C 139.554688 227.691406 154.851562 221.121094 162.914062 218.378906 L 182.273438 211.804688 L 178.339844 235.179688 L 173.972656 234.558594 L 146.878906 320.71875 L 181.628906 326.460938 L 190.148438 236.851562 L 185.046875 236.128906 L 189.722656 208.335938 L 204.457031 199.113281 L 204.457031 224.492188 L 197.683594 224.492188 L 187.523438 337.5 L 248.492188 337.5 L 238.328125 224.492188 L 231.136719 224.492188 L 228.585938 184.007812 L 234.152344 180.523438 L 248.347656 231.148438 L 245.507812 232.527344 L 254.328125 325.78125 L 295.910156 314.007812 L 262.039062 224.492188 L 254.535156 228.140625 L 240.132812 176.78125 L 240.855469 176.328125 C 241.277344 176.070312 241.679688 175.78125 242.054688 175.457031 C 242.429688 175.132812 242.773438 174.777344 243.085938 174.394531 C 243.402344 174.011719 243.679688 173.601562 243.925781 173.171875 C 244.171875 172.738281 244.375 172.289062 244.542969 171.824219 C 244.710938 171.355469 244.839844 170.878906 244.925781 170.390625 C 245.011719 169.902344 245.054688 169.410156 245.058594 168.914062 C 245.058594 168.417969 245.019531 167.925781 244.9375 167.4375 C 244.855469 166.949219 244.734375 166.46875 244.570312 166 C 244.351562 165.441406 244.078125 164.90625 243.75 164.402344 C 243.421875 163.898438 243.042969 163.4375 242.617188 163.011719 C 242.191406 162.585938 241.726562 162.210938 241.222656 161.882812 C 240.714844 161.558594 240.183594 161.285156 239.621094 161.070312 C 239.058594 160.855469 238.480469 160.703125 237.886719 160.609375 C 237.292969 160.515625 236.695312 160.484375 236.09375 160.515625 C 235.492188 160.546875 234.902344 160.640625 234.320312 160.796875 C 233.738281 160.953125 233.179688 161.167969 232.644531 161.441406 L 215.40625 170.75 L 226.027344 154.433594 C 226.289062 154.007812 226.503906 153.558594 226.671875 153.085938 C 226.835938 152.617188 226.949219 152.132812 227.011719 151.636719 C 227.070312 151.136719 227.074219 150.640625 227.027344 150.144531 C 226.976562 149.644531 226.875 149.160156 226.71875 148.683594 C 226.5625 148.210938 226.355469 147.757812 226.101562 147.328125 C 225.847656 146.898438 225.546875 146.5 225.203125 146.132812 C 224.863281 145.769531 224.484375 145.445312 224.070312 145.164062 C 223.660156 144.882812 223.21875 144.648438 222.753906 144.464844 C 222.039062 144.171875 221.296875 144.007812 220.527344 143.960938 C 219.757812 143.917969 219 144 218.257812 144.207031 C 217.515625 144.414062 216.824219 144.738281 216.1875 145.171875 C 215.550781 145.609375 215.003906 146.136719 214.542969 146.753906 L 207.257812 156.582031 C 206.875 157.097656 206.425781 157.550781 205.914062 157.9375 L 168.804688 187.023438 L 147.167969 188.285156 C 146.855469 188.308594 146.632812 188.175781 146.507812 187.886719 C 146.378906 187.601562 146.429688 187.347656 146.660156 187.132812 L 167.769531 167.136719 C 168.039062 166.902344 168.292969 166.648438 168.53125 166.382812 C 168.769531 166.117188 168.992188 165.835938 169.195312 165.539062 C 169.398438 165.246094 169.582031 164.9375 169.742188 164.621094 C 169.90625 164.300781 170.050781 163.972656 170.171875 163.636719 C 170.292969 163.300781 170.390625 162.957031 170.46875 162.605469 C 170.546875 162.257812 170.601562 161.902344 170.632812 161.546875 C 170.664062 161.191406 170.675781 160.832031 170.660156 160.476562 C 170.648438 160.117188 170.609375 159.761719 170.550781 159.410156 C 170.492188 159.054688 170.410156 158.707031 170.304688 158.367188 C 170.203125 158.023438 170.078125 157.6875 169.929688 157.363281 C 169.78125 157.035156 169.617188 156.71875 169.429688 156.414062 C 169.242188 156.109375 169.035156 155.816406 168.808594 155.539062 C 168.585938 155.261719 168.34375 154.996094 168.085938 154.75 C 167.824219 154.503906 167.550781 154.273438 167.265625 154.058594 C 166.976562 153.847656 166.675781 153.652344 166.363281 153.480469 C 166.050781 153.304688 165.726562 153.152344 165.394531 153.019531 C 164.121094 152.503906 162.796875 152.304688 161.425781 152.425781 C 160.054688 152.546875 158.789062 152.972656 157.625 153.707031 L 126.421875 175.855469 C 111.980469 189.375 105.34375 207.054688 99.457031 222.503906 C 97.199219 227.640625 94.941406 232.777344 92.683594 237.917969 L 133.328125 251.339844 Z M 211.230469 194.871094 L 222.054688 188.097656 L 224.351562 224.492188 L 211.230469 224.492188 Z M 211.230469 194.871094 " fill-opacity="1" fill-rule="nonzero"/></g><g clip-path="url(#4fb6f2262b)"><path fill="#737373" d="M 320.101562 182.660156 C 321.292969 182.660156 322.476562 182.632812 323.664062 182.574219 C 324.851562 182.515625 326.035156 182.429688 327.21875 182.3125 C 328.398438 182.195312 329.578125 182.050781 330.753906 181.875 C 331.929688 181.703125 333.097656 181.5 334.261719 181.265625 C 335.429688 181.035156 336.585938 180.773438 337.738281 180.484375 C 338.890625 180.199219 340.035156 179.878906 341.171875 179.535156 C 342.308594 179.191406 343.4375 178.820312 344.554688 178.417969 C 345.671875 178.019531 346.78125 177.589844 347.878906 177.136719 C 348.976562 176.683594 350.0625 176.199219 351.136719 175.691406 C 352.210938 175.183594 353.269531 174.652344 354.316406 174.089844 C 355.363281 173.53125 356.398438 172.945312 357.417969 172.335938 C 358.4375 171.722656 359.4375 171.089844 360.425781 170.429688 C 361.414062 169.769531 362.386719 169.085938 363.339844 168.378906 C 364.292969 167.671875 365.230469 166.941406 366.148438 166.1875 C 367.066406 165.433594 367.964844 164.65625 368.84375 163.859375 C 369.726562 163.0625 370.585938 162.242188 371.425781 161.402344 C 372.265625 160.5625 373.085938 159.703125 373.882812 158.824219 C 374.679688 157.941406 375.457031 157.042969 376.207031 156.125 C 376.960938 155.207031 377.691406 154.269531 378.402344 153.316406 C 379.109375 152.363281 379.792969 151.390625 380.453125 150.402344 C 381.113281 149.417969 381.746094 148.414062 382.359375 147.394531 C 382.96875 146.375 383.554688 145.34375 384.113281 144.292969 C 384.671875 143.246094 385.207031 142.1875 385.714844 141.113281 C 386.222656 140.039062 386.703125 138.953125 387.160156 137.855469 C 387.613281 136.757812 388.039062 135.652344 388.441406 134.53125 C 388.839844 133.414062 389.214844 132.285156 389.558594 131.148438 C 389.902344 130.011719 390.21875 128.867188 390.507812 127.714844 C 390.796875 126.5625 391.058594 125.40625 391.289062 124.242188 C 391.519531 123.074219 391.722656 121.90625 391.898438 120.730469 C 392.074219 119.554688 392.21875 118.375 392.335938 117.195312 C 392.449219 116.011719 392.539062 114.828125 392.597656 113.640625 C 392.65625 112.457031 392.683594 111.269531 392.683594 110.082031 C 392.683594 108.894531 392.65625 107.707031 392.597656 106.519531 C 392.539062 105.332031 392.449219 104.148438 392.335938 102.964844 C 392.21875 101.785156 392.074219 100.605469 391.898438 99.429688 C 391.722656 98.253906 391.519531 97.085938 391.289062 95.921875 C 391.058594 94.753906 390.796875 93.597656 390.507812 92.445312 C 390.21875 91.292969 389.902344 90.148438 389.558594 89.011719 C 389.214844 87.875 388.839844 86.746094 388.441406 85.628906 C 388.039062 84.511719 387.613281 83.402344 387.160156 82.304688 C 386.703125 81.207031 386.222656 80.121094 385.714844 79.046875 C 385.207031 77.976562 384.671875 76.914062 384.113281 75.867188 C 383.554688 74.820312 382.96875 73.785156 382.359375 72.765625 C 381.746094 71.746094 381.113281 70.746094 380.453125 69.757812 C 379.792969 68.769531 379.109375 67.796875 378.402344 66.84375 C 377.691406 65.890625 376.960938 64.953125 376.207031 64.035156 C 375.457031 63.117188 374.679688 62.21875 373.882812 61.339844 C 373.085938 60.457031 372.265625 59.597656 371.425781 58.757812 C 370.585938 57.917969 369.726562 57.101562 368.84375 56.300781 C 367.964844 55.503906 367.066406 54.730469 366.148438 53.976562 C 365.230469 53.222656 364.292969 52.492188 363.339844 51.785156 C 362.386719 51.074219 361.414062 50.390625 360.425781 49.730469 C 359.4375 49.070312 358.4375 48.4375 357.417969 47.824219 C 356.398438 47.214844 355.363281 46.628906 354.316406 46.070312 C 353.269531 45.511719 352.210938 44.976562 351.136719 44.46875 C 350.0625 43.960938 348.976562 43.480469 347.878906 43.023438 C 346.78125 42.570312 345.671875 42.144531 344.554688 41.742188 C 343.4375 41.34375 342.308594 40.96875 341.171875 40.625 C 340.035156 40.28125 338.890625 39.964844 337.738281 39.675781 C 336.585938 39.386719 335.429688 39.125 334.261719 38.894531 C 333.097656 38.664062 331.929688 38.460938 330.753906 38.285156 C 329.578125 38.109375 328.398438 37.964844 327.21875 37.847656 C 326.035156 37.734375 324.851562 37.644531 323.664062 37.585938 C 322.476562 37.527344 321.292969 37.5 320.101562 37.5 C 318.914062 37.5 317.726562 37.527344 316.542969 37.585938 C 315.355469 37.644531 314.171875 37.734375 312.988281 37.847656 C 311.808594 37.964844 310.628906 38.109375 309.453125 38.285156 C 308.277344 38.460938 307.109375 38.664062 305.945312 38.894531 C 304.777344 39.125 303.621094 39.386719 302.46875 39.675781 C 301.316406 39.964844 300.171875 40.28125 299.035156 40.625 C 297.898438 40.96875 296.769531 41.34375 295.652344 41.742188 C 294.535156 42.144531 293.425781 42.570312 292.328125 43.023438 C 291.230469 43.480469 290.144531 43.960938 289.070312 44.46875 C 287.996094 44.976562 286.9375 45.511719 285.890625 46.070312 C 284.839844 46.628906 283.808594 47.214844 282.789062 47.824219 C 281.769531 48.4375 280.765625 49.070312 279.78125 49.730469 C 278.792969 50.390625 277.820312 51.074219 276.867188 51.785156 C 275.914062 52.492188 274.976562 53.222656 274.058594 53.976562 C 273.140625 54.730469 272.242188 55.503906 271.359375 56.300781 C 270.480469 57.101562 269.621094 57.917969 268.78125 58.757812 C 267.941406 59.597656 267.121094 60.457031 266.324219 61.339844 C 265.527344 62.21875 264.75 63.117188 263.996094 64.035156 C 263.242188 64.953125 262.511719 65.890625 261.804688 66.84375 C 261.097656 67.796875 260.414062 68.769531 259.753906 69.757812 C 259.09375 70.746094 258.460938 71.746094 257.847656 72.765625 C 257.238281 73.785156 256.652344 74.820312 256.09375 75.867188 C 255.53125 76.914062 255 77.976562 254.492188 79.046875 C 253.984375 80.121094 253.503906 81.207031 253.046875 82.304688 C 252.59375 83.402344 252.164062 84.511719 251.765625 85.628906 C 251.367188 86.746094 250.992188 87.875 250.648438 89.011719 C 250.304688 90.148438 249.988281 91.292969 249.699219 92.445312 C 249.410156 93.597656 249.148438 94.753906 248.917969 95.921875 C 248.683594 97.085938 248.484375 98.257812 248.308594 99.429688 C 248.132812 100.605469 247.988281 101.785156 247.871094 102.964844 C 247.753906 104.148438 247.667969 105.332031 247.609375 106.519531 C 247.550781 107.707031 247.523438 108.894531 247.523438 110.082031 C 247.523438 111.269531 247.550781 112.457031 247.609375 113.640625 C 247.667969 114.828125 247.753906 116.011719 247.871094 117.195312 C 247.988281 118.375 248.132812 119.554688 248.308594 120.730469 C 248.484375 121.90625 248.683594 123.074219 248.917969 124.242188 C 249.148438 125.40625 249.410156 126.5625 249.699219 127.714844 C 249.988281 128.867188 250.304688 130.011719 250.648438 131.148438 C 250.992188 132.285156 251.367188 133.414062 251.765625 134.53125 C 252.164062 135.652344 252.59375 136.757812 253.046875 137.855469 C 253.503906 138.953125 253.984375 140.039062 254.492188 141.113281 C 255 142.1875 255.53125 143.246094 256.09375 144.292969 C 256.652344 145.34375 257.238281 146.375 257.847656 147.394531 C 258.460938 148.414062 259.09375 149.417969 259.753906 150.402344 C 260.414062 151.390625 261.097656 152.363281 261.804688 153.316406 C 262.511719 154.269531 263.242188 155.207031 263.996094 156.125 C 264.75 157.042969 265.527344 157.941406 266.324219 158.824219 C 267.121094 159.703125 267.941406 160.5625 268.78125 161.402344 C 269.621094 162.242188 270.480469 163.0625 271.359375 163.859375 C 272.242188 164.65625 273.140625 165.433594 274.058594 166.1875 C 274.976562 166.941406 275.914062 167.671875 276.867188 168.378906 C 277.820312 169.085938 278.792969 169.769531 279.78125 170.429688 C 280.765625 171.089844 281.769531 171.722656 282.789062 172.335938 C 283.808594 172.945312 284.839844 173.53125 285.890625 174.089844 C 286.9375 174.652344 287.996094 175.183594 289.070312 175.691406 C 290.144531 176.199219 291.230469 176.683594 292.328125 177.136719 C 293.425781 177.589844 294.535156 178.019531 295.652344 178.417969 C 296.769531 178.820312 297.898438 179.191406 299.035156 179.535156 C 300.171875 179.878906 301.316406 180.199219 302.46875 180.484375 C 303.621094 180.773438 304.777344 181.035156 305.945312 181.265625 C 307.109375 181.5 308.277344 181.703125 309.453125 181.875 C 310.628906 182.050781 311.808594 182.195312 312.988281 182.3125 C 314.171875 182.429688 315.355469 182.515625 316.542969 182.574219 C 317.726562 182.632812 318.914062 182.660156 320.101562 182.660156 Z M 316.472656 160.886719 C 316.078125 160.886719 315.683594 160.847656 315.292969 160.769531 C 314.90625 160.695312 314.527344 160.578125 314.160156 160.425781 C 313.792969 160.273438 313.445312 160.089844 313.113281 159.867188 C 312.785156 159.648438 312.476562 159.394531 312.199219 159.117188 C 311.917969 158.835938 311.664062 158.527344 311.445312 158.199219 C 311.222656 157.867188 311.039062 157.519531 310.886719 157.152344 C 310.734375 156.785156 310.621094 156.40625 310.542969 156.019531 C 310.464844 155.628906 310.425781 155.234375 310.425781 154.839844 C 310.425781 154.441406 310.464844 154.046875 310.542969 153.660156 C 310.621094 153.269531 310.734375 152.890625 310.886719 152.523438 C 311.039062 152.15625 311.222656 151.808594 311.445312 151.476562 C 311.664062 151.148438 311.917969 150.84375 312.199219 150.5625 C 312.476562 150.28125 312.785156 150.03125 313.113281 149.808594 C 313.445312 149.589844 313.792969 149.402344 314.160156 149.25 C 314.527344 149.097656 314.90625 148.984375 315.292969 148.90625 C 315.683594 148.828125 316.078125 148.789062 316.472656 148.789062 C 316.871094 148.789062 317.265625 148.828125 317.652344 148.90625 C 318.042969 148.984375 318.421875 149.097656 318.789062 149.25 C 319.15625 149.402344 319.503906 149.589844 319.835938 149.808594 C 320.164062 150.03125 320.46875 150.28125 320.75 150.5625 C 321.03125 150.84375 321.28125 151.148438 321.503906 151.476562 C 321.722656 151.808594 321.910156 152.15625 322.0625 152.523438 C 322.214844 152.890625 322.328125 153.269531 322.40625 153.660156 C 322.484375 154.046875 322.523438 154.441406 322.523438 154.839844 C 322.523438 155.234375 322.484375 155.628906 322.40625 156.019531 C 322.328125 156.40625 322.214844 156.785156 322.0625 157.152344 C 321.910156 157.519531 321.722656 157.867188 321.503906 158.199219 C 321.28125 158.527344 321.03125 158.835938 320.75 159.117188 C 320.46875 159.394531 320.164062 159.648438 319.835938 159.867188 C 319.503906 160.089844 319.15625 160.273438 318.789062 160.425781 C 318.421875 160.578125 318.042969 160.695312 317.652344 160.769531 C 317.265625 160.847656 316.871094 160.886719 316.472656 160.886719 Z M 347.925781 160.886719 C 347.527344 160.886719 347.136719 160.847656 346.746094 160.769531 C 346.355469 160.695312 345.976562 160.578125 345.609375 160.425781 C 345.246094 160.273438 344.894531 160.089844 344.566406 159.867188 C 344.234375 159.648438 343.929688 159.394531 343.648438 159.117188 C 343.367188 158.835938 343.117188 158.527344 342.898438 158.199219 C 342.675781 157.867188 342.488281 157.519531 342.335938 157.152344 C 342.1875 156.785156 342.070312 156.40625 341.992188 156.019531 C 341.917969 155.628906 341.878906 155.234375 341.878906 154.839844 C 341.878906 154.441406 341.917969 154.046875 341.992188 153.660156 C 342.070312 153.269531 342.1875 152.890625 342.335938 152.523438 C 342.488281 152.15625 342.675781 151.808594 342.898438 151.476562 C 343.117188 151.148438 343.367188 150.84375 343.648438 150.5625 C 343.929688 150.28125 344.234375 150.03125 344.566406 149.808594 C 344.894531 149.589844 345.246094 149.402344 345.609375 149.25 C 345.976562 149.097656 346.355469 148.984375 346.746094 148.90625 C 347.136719 148.828125 347.527344 148.789062 347.925781 148.789062 C 348.324219 148.789062 348.714844 148.828125 349.105469 148.90625 C 349.496094 148.984375 349.875 149.097656 350.242188 149.25 C 350.605469 149.402344 350.957031 149.589844 351.285156 149.808594 C 351.617188 150.03125 351.921875 150.28125 352.203125 150.5625 C 352.484375 150.84375 352.734375 151.148438 352.953125 151.476562 C 353.175781 151.808594 353.363281 152.15625 353.515625 152.523438 C 353.664062 152.890625 353.78125 153.269531 353.859375 153.660156 C 353.933594 154.046875 353.972656 154.441406 353.972656 154.839844 C 353.972656 155.234375 353.933594 155.628906 353.859375 156.019531 C 353.78125 156.40625 353.664062 156.785156 353.515625 157.152344 C 353.363281 157.519531 353.175781 157.867188 352.953125 158.199219 C 352.734375 158.527344 352.484375 158.835938 352.203125 159.117188 C 351.921875 159.394531 351.617188 159.648438 351.285156 159.867188 C 350.957031 160.089844 350.605469 160.273438 350.242188 160.425781 C 349.875 160.578125 349.496094 160.695312 349.105469 160.769531 C 348.714844 160.847656 348.324219 160.886719 347.925781 160.886719 Z M 272.652344 66.53125 L 287.167969 66.53125 C 287.679688 66.53125 288.175781 66.609375 288.664062 66.769531 C 289.148438 66.925781 289.597656 67.15625 290.011719 67.457031 C 290.425781 67.757812 290.78125 68.113281 291.082031 68.527344 C 291.382812 68.941406 291.613281 69.390625 291.769531 69.875 L 296.972656 85.886719 L 366.070312 85.886719 C 366.261719 85.886719 366.449219 85.910156 366.636719 85.953125 C 366.824219 86 367 86.066406 367.171875 86.152344 C 367.34375 86.238281 367.5 86.347656 367.644531 86.472656 C 367.789062 86.597656 367.917969 86.734375 368.03125 86.890625 C 368.144531 87.046875 368.234375 87.214844 368.308594 87.390625 C 368.382812 87.570312 368.433594 87.753906 368.460938 87.941406 C 368.488281 88.132812 368.496094 88.320312 368.480469 88.511719 C 368.464844 88.703125 368.425781 88.890625 368.363281 89.070312 L 355.460938 127.78125 C 355.296875 128.273438 355.003906 128.675781 354.582031 128.980469 C 354.160156 129.28125 353.6875 129.433594 353.167969 129.433594 L 311.117188 129.433594 L 311.679688 131.160156 C 311.851562 131.621094 312.089844 132.042969 312.390625 132.429688 C 312.695312 132.816406 313.046875 133.148438 313.453125 133.425781 C 313.855469 133.703125 314.292969 133.914062 314.761719 134.058594 C 315.230469 134.203125 315.710938 134.277344 316.199219 134.273438 L 353.972656 134.273438 L 353.972656 143.953125 L 316.199219 143.953125 C 315.453125 143.949219 314.710938 143.894531 313.972656 143.777344 C 313.238281 143.664062 312.511719 143.492188 311.800781 143.265625 C 311.089844 143.039062 310.402344 142.757812 309.734375 142.425781 C 309.066406 142.09375 308.425781 141.710938 307.816406 141.28125 C 307.207031 140.847656 306.636719 140.375 306.101562 139.855469 C 305.5625 139.335938 305.070312 138.777344 304.621094 138.183594 C 304.171875 137.589844 303.769531 136.960938 303.414062 136.304688 C 303.0625 135.648438 302.757812 134.96875 302.511719 134.265625 L 283.652344 76.210938 L 272.652344 76.210938 Z M 272.652344 66.53125 " fill-opacity="1" fill-rule="nonzero"/></g><g fill="#737373" fill-opacity="1"><g transform="translate(423.490886, 203.962217)"><g><path d="M 37.726562 -25.917969 L 37.726562 -26.53125 C 42.175781 -26.992188 45.472656 -31.976562 45.625 -39.492188 C 45.625 -48.617188 39.261719 -54.136719 28.832031 -54.136719 L 5.367188 -54.136719 L 5.367188 -0.078125 L 18.710938 -0.078125 L 18.710938 -21.242188 L 27.375 -21.242188 C 30.75 -21.242188 32.589844 -19.785156 32.589844 -16.257812 L 32.511719 -0.078125 L 46.007812 0 L 46.007812 -16.5625 C 46.007812 -22.082031 42.632812 -25.382812 37.726562 -25.917969 Z M 25.304688 -30.75 L 18.710938 -30.75 L 18.710938 -44.246094 L 24.921875 -44.246094 C 29.828125 -44.246094 32.589844 -41.867188 32.589844 -37.421875 C 32.589844 -33.355469 29.90625 -30.75 25.304688 -30.75 Z M 25.304688 -30.75 "/></g></g></g><g fill="#737373" fill-opacity="1"><g transform="translate(473.17869, 203.962217)"><g><path d="M 38.722656 -11.578125 C 33.96875 -9.96875 28.449219 -9.355469 24.382812 -9.660156 C 18.863281 -9.96875 15.335938 -12.5 14.953125 -17.101562 L 14.953125 -17.636719 L 39.875 -17.636719 L 39.875 -19.246094 C 39.335938 -33.203125 34.277344 -39.566406 21.46875 -39.566406 C 10.429688 -39.566406 3.066406 -31.667969 3.066406 -19.476562 C 3.066406 -3.988281 13.496094 0.691406 23.617188 0.691406 C 29.980469 0.613281 36.421875 -1.226562 38.875 -2.835938 Z M 15.03125 -22.46875 C 15.257812 -27.066406 18.019531 -30.058594 21.777344 -30.058594 C 25.6875 -30.058594 28.066406 -27.296875 28.066406 -22.542969 Z M 15.03125 -22.46875 "/></g></g></g><g fill="#737373" fill-opacity="1"><g transform="translate(516.118772, 203.962217)"><g><path d="M 20.011719 -29.367188 L 29.214844 -29.367188 L 29.214844 -38.648438 L 20.011719 -38.648438 L 20.011719 -48.769531 L 7.285156 -48.769531 L 7.285156 -38.648438 L 0.84375 -38.648438 L 0.84375 -29.367188 L 7.285156 -29.367188 L 7.285156 -12.730469 C 7.285156 -5.0625 12.730469 0 21.011719 0 L 29.367188 0 L 29.367188 -9.277344 L 23.617188 -9.277344 C 21.46875 -9.277344 20.011719 -10.886719 20.011719 -13.34375 Z M 20.011719 -29.367188 "/></g></g></g><g fill="#737373" fill-opacity="1"><g transform="translate(547.403682, 203.962217)"><g><path d="M 41.867188 -9.277344 L 40.71875 -9.277344 C 40.027344 -9.277344 39.566406 -9.816406 39.566406 -10.734375 L 39.566406 -21.777344 C 39.566406 -32.511719 32.28125 -39.566406 21.242188 -39.566406 C 10.734375 -39.566406 3.21875 -33.433594 3.21875 -25.304688 L 15.105469 -25.304688 C 15.105469 -27.679688 17.328125 -30.289062 21.242188 -30.289062 C 25.074219 -30.289062 27.679688 -28.140625 27.679688 -24.921875 C 27.679688 -24.078125 26.300781 -23.3125 24.078125 -22.851562 C 22.925781 -22.621094 21.46875 -22.46875 13.496094 -21.699219 C 6.976562 -20.933594 2.992188 -16.792969 2.992188 -11.117188 C 2.992188 -4.140625 7.898438 0.535156 15.335938 0.535156 C 21.546875 0.535156 27.296875 -3.527344 29.597656 -9.660156 L 30.136719 -9.660156 L 29.980469 -8.359375 C 29.292969 -3.375 32.28125 0 37.574219 0 L 41.867188 0 Z M 19.785156 -8.511719 C 16.945312 -8.511719 15.105469 -10.046875 15.105469 -12.421875 C 15.105469 -17.484375 24.613281 -15.644531 27.453125 -18.402344 L 27.679688 -18.402344 L 27.679688 -15.105469 C 27.222656 -11.117188 24.078125 -8.511719 19.785156 -8.511719 Z M 19.785156 -8.511719 "/></g></g></g><g fill="#737373" fill-opacity="1"><g transform="translate(590.573793, 203.962217)"><g><path d="M 10.273438 -42.632812 C 14.03125 -42.632812 17.023438 -45.625 17.023438 -49.457031 C 17.023438 -53.214844 14.03125 -56.207031 10.273438 -56.207031 C 6.441406 -56.207031 3.449219 -53.214844 3.449219 -49.457031 C 3.449219 -45.625 6.441406 -42.632812 10.273438 -42.632812 Z M 16.945312 0 L 16.945312 -38.953125 L 4.21875 -38.953125 L 4.21875 0 Z M 16.945312 0 "/></g></g></g><g fill="#737373" fill-opacity="1"><g transform="translate(611.660442, 203.962217)"><g><path d="M 4.21875 0 L 16.945312 0 L 16.945312 -55.210938 L 4.21875 -55.210938 Z M 4.21875 0 "/></g></g></g></svg>